<svg width="44" height="44" viewBox="0 0 44 44" fill="none" xmlns="http://www.w3.org/2000/svg">
<path d="M15.3333 9.86816V41.5468M28.6667 2.4013V34.0799M2 14.4283C2 11.0349 2 9.33926 2.87333 8.35035C3.18222 7.99701 3.55778 7.717 3.97778 7.52366C7.12444 6.07251 11.2489 9.89261 14.5778 9.77483C15.0178 9.75853 15.4526 9.69779 15.8822 9.5926C20.7356 8.40368 23.7756 2.74798 28.7667 2.05907C31.6267 1.65906 34.7667 3.388 37.4422 4.31247C39.6422 5.07248 40.7422 5.4525 41.3711 6.35696C42 7.26143 42 8.46591 42 10.866V29.582C42 32.9732 42 34.671 41.1267 35.6599C40.82 36.0087 40.4438 36.2895 40.0222 36.4844C36.8756 37.9356 32.7511 34.1177 29.4222 34.2355C28.9825 34.2523 28.5456 34.3126 28.1178 34.4155C23.2644 35.6044 20.2244 41.2601 15.2333 41.9512C12.3867 42.3468 4.46222 40.2845 2.62889 37.6511C2 36.7466 2 35.5466 2 33.1421V14.4283Z" stroke="#2FFD8C" stroke-width="3" stroke-linecap="round" stroke-linejoin="round"/>
</svg>
