<svg width="1247" height="245" viewBox="0 0 1247 245" fill="none" xmlns="http://www.w3.org/2000/svg">
<path d="M105.895 1.77441C106.597 1.54605 107.355 1.54611 108.058 1.77441L169.701 21.8037C170.404 22.0321 171.017 22.4773 171.451 23.0752L209.549 75.5117C209.983 76.1095 210.217 76.8294 210.217 77.5684V142.384C210.217 143.123 209.983 143.843 209.549 144.441L171.451 196.878C171.017 197.476 170.404 197.921 169.701 198.149L108.058 218.179C107.355 218.407 106.597 218.407 105.895 218.179L44.252 198.149C43.549 197.921 42.9364 197.476 42.502 196.878L4.4043 144.441C3.96984 143.843 3.73535 143.123 3.73535 142.384V77.5684C3.73544 76.8294 3.96998 76.1096 4.4043 75.5117L42.502 23.0752C42.9364 22.4772 43.549 22.0321 44.252 21.8037L105.895 1.77441Z" fill="#65D6DE" stroke="#65D6DE" stroke-width="3"/>
<path d="M109.074 49.1464C124.175 49.1464 138.153 51.7588 148.608 56.2474C153.822 58.4885 158.455 61.3187 161.868 64.7892C165.033 67.9908 167.382 72.0119 167.754 76.6734L167.806 77.9605V141.992C167.806 147.204 165.32 151.661 161.868 155.163C158.455 158.634 153.822 161.464 148.608 163.705C138.153 168.187 124.175 170.806 109.074 170.806C93.9735 170.806 79.9953 168.193 69.5409 163.705C64.3268 161.464 59.6935 158.634 56.2805 155.163C53.1155 151.961 50.7662 147.94 50.3942 143.279L50.342 141.992V77.9605C50.342 72.7483 52.8284 68.2917 56.2805 64.7892C59.6935 61.3187 64.3268 58.4885 69.5409 56.2474C79.9953 51.7652 93.9735 49.1464 109.074 49.1464ZM154.755 132.086C154.755 130.539 153.067 129.567 151.685 130.262C150.675 130.77 149.649 131.246 148.608 131.689C138.153 136.171 124.175 138.79 109.074 138.79C93.9735 138.79 79.9953 136.178 69.5409 131.689C68.4995 131.246 67.4731 130.77 66.4633 130.262C65.0815 129.567 63.3936 130.539 63.3936 132.086V141.992C63.3936 142.965 63.8243 144.399 65.6646 146.263C67.531 148.158 70.5459 150.156 74.7746 151.974C83.219 155.598 95.3374 158 109.074 158C122.811 158 134.929 155.598 143.374 151.974C147.603 150.156 150.617 148.158 152.484 146.263C154.324 144.406 154.755 142.965 154.755 141.992V132.086ZM154.755 100.07C154.755 98.5236 153.067 97.5512 151.685 98.2461C150.675 98.7539 149.649 99.23 148.608 99.6735C138.153 104.156 124.175 106.775 109.074 106.775C93.9735 106.775 79.9953 104.162 69.5409 99.6735C68.4995 99.2301 67.4731 98.7541 66.4633 98.2463C65.0815 97.5514 63.3936 98.5238 63.3936 100.07V109.976C63.3936 110.949 63.8243 112.384 65.6646 114.247C67.531 116.142 70.5459 118.14 74.7746 119.959C83.219 123.583 95.3374 125.984 109.074 125.984C122.811 125.984 134.929 123.583 143.374 119.959C147.603 118.14 150.617 116.142 152.484 114.247C154.324 112.39 154.755 110.949 154.755 109.976V100.07ZM109.074 61.9526C95.3374 61.9526 83.219 64.3538 74.7746 67.978C70.5459 69.7965 67.531 71.7942 65.6646 73.6896C63.8243 75.5465 63.3936 76.9872 63.3936 77.9605C63.3936 78.9337 63.8243 80.368 65.6646 82.2313C67.531 84.1267 70.5459 86.1245 74.7746 87.9429C83.219 91.5671 95.3374 93.9683 109.074 93.9683C122.811 93.9683 134.929 91.5671 143.374 87.9429C147.603 86.1245 150.617 84.1267 152.484 82.2313C154.324 80.3744 154.755 78.9337 154.755 77.9605C154.755 76.9872 154.324 75.5529 152.484 73.6896C150.617 71.7942 147.603 69.7965 143.374 67.978C134.929 64.3538 122.811 61.9526 109.074 61.9526Z" fill="black"/>
<path d="M238.438 153V62.8125H267.688C276.688 62.8125 284.354 64.5833 290.688 68.125C297.062 71.6667 301.938 76.7917 305.312 83.5C308.729 90.2083 310.438 98.3125 310.438 107.812V107.938C310.438 117.438 308.75 125.562 305.375 132.312C302 139.021 297.125 144.146 290.75 147.688C284.375 151.229 276.688 153 267.688 153H238.438ZM246.938 145.312H267.125C274.583 145.312 280.875 143.875 286 141C291.125 138.083 295.021 133.854 297.688 128.312C300.396 122.729 301.75 115.958 301.75 108V107.875C301.75 99.875 300.396 93.0833 297.688 87.5C295.021 81.9167 291.125 77.6875 286 74.8125C280.875 71.9375 274.583 70.5 267.125 70.5H246.938V145.312ZM405.25 153V88H413.5V99.6875H413.688C414.854 95.6875 416.812 92.5417 419.562 90.25C422.354 87.9583 425.729 86.8125 429.688 86.8125C430.771 86.8125 431.771 86.8958 432.688 87.0625C433.604 87.2292 434.312 87.3958 434.812 87.5625V95.625C434.271 95.375 433.458 95.1667 432.375 95C431.292 94.7917 430.021 94.6875 428.562 94.6875C425.521 94.6875 422.854 95.4375 420.562 96.9375C418.312 98.3958 416.562 100.479 415.312 103.188C414.104 105.896 413.5 109.083 413.5 112.75V153H405.25ZM461 154.188C456.75 154.188 453 153.396 449.75 151.812C446.5 150.188 443.958 147.938 442.125 145.062C440.333 142.146 439.438 138.792 439.438 135V134.875C439.438 131.167 440.333 127.979 442.125 125.312C443.958 122.646 446.604 120.542 450.062 119C453.562 117.417 457.792 116.479 462.75 116.188L487.125 114.625V121.062L463.75 122.625C458.667 123 454.729 124.25 451.938 126.375C449.188 128.458 447.812 131.292 447.812 134.875V135C447.812 138.583 449.188 141.479 451.938 143.688C454.688 145.854 458.25 146.938 462.625 146.938C466.458 146.938 469.896 146.146 472.938 144.562C476.021 142.938 478.458 140.729 480.25 137.938C482.083 135.146 483 132.021 483 128.562V109.25C483 104.542 481.583 100.854 478.75 98.1875C475.958 95.5208 472.021 94.1875 466.938 94.1875C462.229 94.1875 458.375 95.25 455.375 97.375C452.417 99.5 450.583 102.417 449.875 106.125L449.75 106.75H441.812L441.875 106C442.292 102.25 443.562 98.9375 445.688 96.0625C447.812 93.1875 450.688 90.9375 454.312 89.3125C457.938 87.6458 462.188 86.8125 467.062 86.8125C472.021 86.8125 476.292 87.7083 479.875 89.5C483.5 91.25 486.292 93.75 488.25 97C490.25 100.25 491.25 104.083 491.25 108.5V153H483V141.062H482.812C481.646 143.688 479.958 145.979 477.75 147.938C475.542 149.896 473 151.438 470.125 152.562C467.25 153.646 464.208 154.188 461 154.188ZM527.438 154.188C522.521 154.188 518.229 153.375 514.562 151.75C510.938 150.083 508.042 147.812 505.875 144.938C503.708 142.021 502.417 138.646 502 134.812L501.938 134.25H510.125L510.25 134.812C510.917 138.604 512.729 141.625 515.688 143.875C518.646 146.083 522.562 147.188 527.438 147.188C530.771 147.188 533.625 146.729 536 145.812C538.417 144.896 540.271 143.583 541.562 141.875C542.896 140.125 543.562 138.125 543.562 135.875V135.812C543.562 132.979 542.688 130.729 540.938 129.062C539.188 127.396 536.125 126.042 531.75 125L521.938 122.688C517.854 121.688 514.458 120.417 511.75 118.875C509.083 117.333 507.083 115.458 505.75 113.25C504.458 111 503.812 108.375 503.812 105.375V105.312C503.812 101.688 504.792 98.5 506.75 95.75C508.75 92.9583 511.479 90.7708 514.938 89.1875C518.438 87.6042 522.438 86.8125 526.938 86.8125C531.562 86.8125 535.583 87.6458 539 89.3125C542.458 90.9375 545.188 93.2083 547.188 96.125C549.229 99 550.396 102.312 550.688 106.062L550.75 106.75H542.875L542.812 106.312C542.312 102.521 540.667 99.5 537.875 97.25C535.125 94.9583 531.479 93.8125 526.938 93.8125C523.979 93.8125 521.396 94.2917 519.188 95.25C516.979 96.1667 515.271 97.4792 514.062 99.1875C512.854 100.854 512.25 102.792 512.25 105V105.062C512.25 106.771 512.646 108.312 513.438 109.688C514.271 111.021 515.562 112.167 517.312 113.125C519.104 114.083 521.438 114.917 524.312 115.625L534.062 117.938C540.562 119.479 545.167 121.625 547.875 124.375C550.625 127.083 552 130.708 552 135.25V135.312C552 139.021 550.938 142.292 548.812 145.125C546.688 147.958 543.771 150.188 540.062 151.812C536.396 153.396 532.188 154.188 527.438 154.188ZM563.688 153V62.8125H571.938V99.875H572.125C573.792 95.9167 576.458 92.7708 580.125 90.4375C583.792 88.0625 588.208 86.875 593.375 86.875C598.083 86.875 602.188 87.9583 605.688 90.125C609.229 92.25 611.958 95.2708 613.875 99.1875C615.833 103.104 616.812 107.708 616.812 113V153H608.625V114.312C608.625 107.896 607.021 102.938 603.812 99.4375C600.646 95.9375 596.271 94.1875 590.688 94.1875C586.979 94.1875 583.708 95.0625 580.875 96.8125C578.042 98.5625 575.833 100.979 574.25 104.062C572.708 107.104 571.938 110.646 571.938 114.688V153H563.688Z" fill="white"/>
<path d="M359.625 154.312C351.542 154.312 344.479 152.396 338.438 148.562C332.396 144.688 327.708 139.271 324.375 132.312C321.083 125.354 319.438 117.208 319.438 107.875V107.75C319.438 98.3333 321.083 90.1667 324.375 83.25C327.667 76.3333 332.312 70.9792 338.312 67.1875C344.354 63.3958 351.458 61.5 359.625 61.5C365.792 61.5 371.292 62.7083 376.125 65.125C380.958 67.5 384.938 70.8125 388.062 75.0625C391.188 79.3125 393.292 84.2083 394.375 89.75L394.5 90.375H389.625L389.438 89.5625C388.312 84.9792 386.417 80.9375 383.75 77.4375C381.083 73.8958 377.708 71.125 373.625 69.125C369.583 67.0833 364.917 66.0625 359.625 66.0625C352.458 66.0625 346.229 67.7708 340.938 71.1875C335.688 74.6042 331.625 79.4375 328.75 85.6875C325.875 91.9375 324.438 99.2917 324.438 107.75V107.875C324.438 116.292 325.896 123.646 328.812 129.938C331.729 136.188 335.812 141.062 341.062 144.562C346.354 148.021 352.542 149.75 359.625 149.75C364.917 149.75 369.583 148.75 373.625 146.75C377.667 144.708 381.042 141.917 383.75 138.375C386.458 134.792 388.375 130.667 389.5 126L389.625 125.438H394.5L394.375 126.062C393.292 131.604 391.188 136.5 388.062 140.75C384.938 145 380.958 148.333 376.125 150.75C371.292 153.125 365.792 154.312 359.625 154.312Z" fill="#65D6DE"/>
</svg>
