<svg width="214" height="220" viewBox="0 0 214 220" fill="none" xmlns="http://www.w3.org/2000/svg">
<path d="M105.895 1.77441C106.597 1.54605 107.355 1.54611 108.058 1.77441L169.701 21.8037C170.404 22.0321 171.017 22.4773 171.451 23.0752L209.549 75.5117C209.983 76.1095 210.217 76.8294 210.217 77.5684V142.384C210.217 143.123 209.983 143.843 209.549 144.441L171.451 196.878C171.017 197.476 170.404 197.921 169.701 198.149L108.058 218.179C107.355 218.407 106.597 218.407 105.895 218.179L44.252 198.149C43.549 197.921 42.9364 197.476 42.502 196.878L4.4043 144.441C3.96984 143.843 3.73535 143.123 3.73535 142.384V77.5684C3.73544 76.8294 3.96998 76.1096 4.4043 75.5117L42.502 23.0752C42.9364 22.4772 43.549 22.0321 44.252 21.8037L105.895 1.77441Z" fill="#65D6DE" stroke="#65D6DE" stroke-width="3"/>
<path d="M109.074 49.1464C124.175 49.1464 138.153 51.7588 148.608 56.2474C153.822 58.4885 158.455 61.3187 161.868 64.7892C165.033 67.9908 167.382 72.0119 167.754 76.6734L167.806 77.9605V141.992C167.806 147.204 165.32 151.661 161.868 155.163C158.455 158.634 153.822 161.464 148.608 163.705C138.153 168.187 124.175 170.806 109.074 170.806C93.9735 170.806 79.9953 168.193 69.5409 163.705C64.3268 161.464 59.6935 158.634 56.2805 155.163C53.1155 151.961 50.7662 147.94 50.3942 143.279L50.342 141.992V77.9605C50.342 72.7483 52.8284 68.2917 56.2805 64.7892C59.6935 61.3187 64.3268 58.4885 69.5409 56.2474C79.9953 51.7652 93.9735 49.1464 109.074 49.1464ZM154.755 132.086C154.755 130.539 153.067 129.567 151.685 130.262C150.675 130.77 149.649 131.246 148.608 131.689C138.153 136.171 124.175 138.79 109.074 138.79C93.9735 138.79 79.9953 136.178 69.5409 131.689C68.4995 131.246 67.4731 130.77 66.4633 130.262C65.0815 129.567 63.3936 130.539 63.3936 132.086V141.992C63.3936 142.965 63.8243 144.399 65.6646 146.263C67.531 148.158 70.5459 150.156 74.7746 151.974C83.219 155.598 95.3374 158 109.074 158C122.811 158 134.929 155.598 143.374 151.974C147.603 150.156 150.617 148.158 152.484 146.263C154.324 144.406 154.755 142.965 154.755 141.992V132.086ZM154.755 100.07C154.755 98.5236 153.067 97.5512 151.685 98.2461C150.675 98.7539 149.649 99.23 148.608 99.6735C138.153 104.156 124.175 106.775 109.074 106.775C93.9735 106.775 79.9953 104.162 69.5409 99.6735C68.4995 99.2301 67.4731 98.7541 66.4633 98.2463C65.0815 97.5514 63.3936 98.5238 63.3936 100.07V109.976C63.3936 110.949 63.8243 112.384 65.6646 114.247C67.531 116.142 70.5459 118.14 74.7746 119.959C83.219 123.583 95.3374 125.984 109.074 125.984C122.811 125.984 134.929 123.583 143.374 119.959C147.603 118.14 150.617 116.142 152.484 114.247C154.324 112.39 154.755 110.949 154.755 109.976V100.07ZM109.074 61.9526C95.3374 61.9526 83.219 64.3538 74.7746 67.978C70.5459 69.7965 67.531 71.7942 65.6646 73.6896C63.8243 75.5465 63.3936 76.9872 63.3936 77.9605C63.3936 78.9337 63.8243 80.368 65.6646 82.2313C67.531 84.1267 70.5459 86.1245 74.7746 87.9429C83.219 91.5671 95.3374 93.9683 109.074 93.9683C122.811 93.9683 134.929 91.5671 143.374 87.9429C147.603 86.1245 150.617 84.1267 152.484 82.2313C154.324 80.3744 154.755 78.9337 154.755 77.9605C154.755 76.9872 154.324 75.5529 152.484 73.6896C150.617 71.7942 147.603 69.7965 143.374 67.978C134.929 64.3538 122.811 61.9526 109.074 61.9526Z" fill="black"/>
</svg>
