<svg width="44" height="44" viewBox="0 0 44 44" fill="none" xmlns="http://www.w3.org/2000/svg">
<path d="M15.3333 9.86865V41.5473M28.6667 2.40179V34.0804M2 14.4288C2 11.0354 2 9.33975 2.87333 8.35084C3.18222 7.99749 3.55778 7.71749 3.97778 7.52415C7.12444 6.073 11.2489 9.8931 14.5778 9.77532C15.0178 9.75902 15.4526 9.69828 15.8822 9.59309C20.7356 8.40417 23.7756 2.74847 28.7667 2.05956C31.6267 1.65955 34.7667 3.38849 37.4422 4.31295C39.6422 5.07297 40.7422 5.45298 41.3711 6.35745C42 7.26192 42 8.46639 42 10.8665V29.5825C42 32.9737 42 34.6715 41.1267 35.6604C40.82 36.0092 40.4438 36.29 40.0222 36.4849C36.8756 37.936 32.7511 34.1182 29.4222 34.236C28.9825 34.2528 28.5456 34.3131 28.1178 34.416C23.2644 35.6049 20.2244 41.2606 15.2333 41.9517C12.3867 42.3473 4.46222 40.285 2.62889 37.6516C2 36.7471 2 35.5471 2 33.1426V14.4288Z" stroke="url(#paint0_linear_54_12)" stroke-width="3" stroke-linecap="round" stroke-linejoin="round"/>
<defs>
<linearGradient id="paint0_linear_54_12" x1="44.2989" y1="-27.6423" x2="-29.2854" y2="-21.4498" gradientUnits="userSpaceOnUse">
<stop stop-color="white"/>
<stop offset="1" stop-color="#FDFD2F"/>
</linearGradient>
</defs>
</svg>
