<svg width="749" height="457" viewBox="0 0 749 457" fill="none" xmlns="http://www.w3.org/2000/svg">
<g filter="url(#filter0_d_42_43)">
<path d="M351.5 398.4C361.054 398.4 368.8 390.655 368.8 381.1C368.8 371.546 361.054 363.8 351.5 363.8C341.945 363.8 334.2 371.546 334.2 381.1C334.2 390.655 341.945 398.4 351.5 398.4Z" fill="#65D6DE" stroke="white" stroke-width="3"/>
<path d="M351.5 329.2C361.054 329.2 368.8 321.455 368.8 311.9C368.8 302.345 361.054 294.6 351.5 294.6C341.945 294.6 334.2 302.345 334.2 311.9C334.2 321.455 341.945 329.2 351.5 329.2Z" fill="#65D6DE" stroke="white" stroke-width="3"/>
<path d="M351.5 260C361.054 260 368.8 252.254 368.8 242.7C368.8 233.145 361.054 225.4 351.5 225.4C341.945 225.4 334.2 233.145 334.2 242.7C334.2 252.254 341.945 260 351.5 260Z" fill="#65D6DE" stroke="white" stroke-width="3"/>
<path d="M351.5 121.6C361.054 121.6 368.8 113.855 368.8 104.3C368.8 94.7455 361.054 87 351.5 87C341.945 87 334.2 94.7455 334.2 104.3C334.2 113.855 341.945 121.6 351.5 121.6Z" fill="#65D6DE" stroke="white" stroke-width="3"/>
<path d="M351.5 190.8C361.054 190.8 368.8 183.054 368.8 173.5C368.8 163.945 361.054 156.2 351.5 156.2C341.945 156.2 334.2 163.945 334.2 173.5C334.2 183.054 341.945 190.8 351.5 190.8Z" fill="#65D6DE" stroke="white" stroke-width="3"/>
</g>
<g filter="url(#filter1_d_42_43)">
<path d="M195.8 216.75C205.355 216.75 213.1 209.005 213.1 199.45C213.1 189.895 205.355 182.15 195.8 182.15C186.245 182.15 178.5 189.895 178.5 199.45C178.5 209.005 186.245 216.75 195.8 216.75Z" fill="#41F341" stroke="white" stroke-width="3"/>
<path d="M195.3 129.6C204.855 129.6 212.6 121.855 212.6 112.3C212.6 102.745 204.855 95 195.3 95C185.745 95 178 102.745 178 112.3C178 121.855 185.745 129.6 195.3 129.6Z" fill="#41F341" stroke="white" stroke-width="3"/>
<path d="M196.3 389.6C205.855 389.6 213.6 381.855 213.6 372.3C213.6 362.745 205.855 355 196.3 355C186.745 355 179 362.745 179 372.3C179 381.855 186.745 389.6 196.3 389.6Z" fill="#41F341" stroke="white" stroke-width="3"/>
<path d="M195.8 303.25C205.355 303.25 213.1 295.505 213.1 285.95C213.1 276.395 205.355 268.65 195.8 268.65C186.245 268.65 178.5 276.395 178.5 285.95C178.5 295.505 186.245 303.25 195.8 303.25Z" fill="#41F341" stroke="white" stroke-width="3"/>
<path d="M507.2 260C516.755 260 524.5 252.255 524.5 242.7C524.5 233.145 516.755 225.4 507.2 225.4C497.645 225.4 489.9 233.145 489.9 242.7C489.9 252.255 497.645 260 507.2 260Z" fill="#FDFD2F" stroke="white" stroke-width="3"/>
</g>
<g filter="url(#filter2_d_42_43)">
<path d="M213.1 199.45L334.2 104.3" stroke="white" stroke-width="2"/>
<path d="M213.1 285.95L334.2 104.3" stroke="white" stroke-width="2"/>
<path d="M213.1 199.45L334.2 173.5" stroke="white" stroke-width="2"/>
<path d="M213.1 285.95L334.2 173.5" stroke="white" stroke-width="2"/>
<path d="M213.1 199.45L334.2 242.7" stroke="white" stroke-width="2"/>
<path d="M213.1 285.95L334.2 242.7" stroke="white" stroke-width="2"/>
<path d="M213.1 199.45L334.2 311.9" stroke="white" stroke-width="2"/>
<path d="M213.1 285.95L334.2 311.9" stroke="white" stroke-width="2"/>
<path d="M213.1 199.45L334.2 381.1" stroke="white" stroke-width="2"/>
<path d="M213.1 285.95L334.2 381.1" stroke="white" stroke-width="2"/>
<path d="M368.8 104.3L489.9 242.7" stroke="white" stroke-width="2"/>
<path d="M368.8 173.5L489.9 242.7" stroke="white" stroke-width="2"/>
<path d="M368.8 242.7H489.9" stroke="white" stroke-width="2"/>
<path d="M368.8 311.9L489.9 242.7" stroke="white" stroke-width="2"/>
<path d="M368.8 381.1L489.9 242.7" stroke="white" stroke-width="2"/>
<path d="M136 199.7H179.25" stroke="white" stroke-width="2"/>
<path d="M136 112H179.25" stroke="white" stroke-width="2"/>
<path d="M136 374H179.25" stroke="white" stroke-width="2"/>
<path d="M525 242.7H568.25" stroke="white" stroke-width="2"/>
<path d="M136 285.7H179.25" stroke="white" stroke-width="2"/>
</g>
<path d="M214 374L335 173" stroke="white" stroke-width="2"/>
<path d="M214 374L334 104" stroke="white" stroke-width="2"/>
<path d="M213 375L334 243" stroke="white" stroke-width="2"/>
<path d="M213 375L334 310" stroke="white" stroke-width="2"/>
<path d="M214 374L334 380" stroke="white" stroke-width="2"/>
<path d="M214 112L335 104" stroke="white" stroke-width="2"/>
<path d="M214 112L334 176" stroke="white" stroke-width="2"/>
<path d="M214 112L334 243" stroke="white" stroke-width="2"/>
<path d="M214 112L334 312" stroke="white" stroke-width="2"/>
<path d="M213 112L334 379" stroke="white" stroke-width="2"/>
<g filter="url(#filter3_d_42_43)">
<path d="M60.8356 117L57.5792 107.84H59.128L61.5719 115.28H61.6798L64.1237 107.84H65.6788L62.4161 117H60.8356ZM68.9324 117.133C68.2595 117.133 67.6819 116.989 67.1995 116.702C66.7171 116.41 66.3447 115.997 66.0823 115.464C65.8241 114.931 65.6951 114.3 65.6951 113.572V113.566C65.6951 112.847 65.8241 112.218 66.0823 111.681C66.3447 111.143 66.7128 110.724 67.1868 110.424C67.665 110.123 68.2236 109.973 68.8626 109.973C69.5058 109.973 70.058 110.117 70.5193 110.405C70.9848 110.693 71.3424 111.097 71.5921 111.617C71.8417 112.133 71.9666 112.739 71.9666 113.433V113.915H66.3933V112.931H71.281L70.6209 113.845V113.293C70.6209 112.802 70.5447 112.396 70.3923 112.074C70.2442 111.748 70.039 111.505 69.7766 111.344C69.5143 111.183 69.2117 111.103 68.8689 111.103C68.5261 111.103 68.2193 111.188 67.9485 111.357C67.6819 111.522 67.4703 111.767 67.3137 112.093C67.1614 112.419 67.0852 112.819 67.0852 113.293V113.845C67.0852 114.298 67.1614 114.685 67.3137 115.007C67.4661 115.328 67.6819 115.574 67.9612 115.743C68.2447 115.912 68.579 115.997 68.9641 115.997C69.2603 115.997 69.5143 115.957 69.7258 115.876C69.9417 115.792 70.1173 115.688 70.2527 115.565C70.3923 115.443 70.4876 115.322 70.5383 115.204L70.5637 115.153H71.8967L71.884 115.21C71.8248 115.438 71.7211 115.667 71.573 115.896C71.4249 116.12 71.2281 116.325 70.9827 116.511C70.7415 116.697 70.4495 116.848 70.1067 116.962C69.7682 117.076 69.3767 117.133 68.9324 117.133ZM73.2777 117V107.402H74.6552V117H73.2777ZM79.2354 117.133C78.5625 117.133 77.9807 116.989 77.4898 116.702C77.0031 116.414 76.6286 116.003 76.3663 115.47C76.1039 114.933 75.9727 114.296 75.9727 113.56V113.547C75.9727 112.806 76.1039 112.169 76.3663 111.636C76.6329 111.103 77.0095 110.693 77.4961 110.405C77.987 110.117 78.5668 109.973 79.2354 109.973C79.9082 109.973 80.488 110.117 80.9746 110.405C81.4613 110.688 81.8358 111.099 82.0982 111.636C82.3648 112.169 82.4981 112.806 82.4981 113.547V113.56C82.4981 114.296 82.3648 114.933 82.0982 115.47C81.8358 116.003 81.4613 116.414 80.9746 116.702C80.4922 116.989 79.9125 117.133 79.2354 117.133ZM79.2354 115.978C79.6289 115.978 79.9633 115.883 80.2383 115.692C80.5134 115.498 80.7229 115.221 80.8667 114.861C81.0106 114.501 81.0826 114.067 81.0826 113.56V113.547C81.0826 113.035 81.0106 112.599 80.8667 112.239C80.7229 111.88 80.5134 111.604 80.2383 111.414C79.9633 111.219 79.6289 111.122 79.2354 111.122C78.8418 111.122 78.5075 111.219 78.2325 111.414C77.9574 111.604 77.7458 111.88 77.5977 112.239C77.4538 112.599 77.3819 113.035 77.3819 113.547V113.56C77.3819 114.067 77.4538 114.501 77.5977 114.861C77.7458 115.221 77.9574 115.498 78.2325 115.692C78.5075 115.883 78.8418 115.978 79.2354 115.978ZM86.6467 117.133C85.978 117.133 85.4004 116.989 84.9138 116.702C84.4313 116.41 84.0589 115.995 83.7966 115.458C83.5342 114.92 83.403 114.279 83.403 113.534V113.521C83.403 112.789 83.5321 112.159 83.7902 111.63C84.0526 111.101 84.425 110.693 84.9074 110.405C85.3941 110.117 85.9717 109.973 86.6403 109.973C87.2201 109.973 87.7173 110.075 88.132 110.278C88.551 110.477 88.8832 110.752 89.1286 111.103C89.3783 111.45 89.5348 111.846 89.5983 112.29L89.6047 112.322H88.278L88.2717 112.309C88.1955 111.971 88.0199 111.689 87.7448 111.465C87.4697 111.236 87.1037 111.122 86.6467 111.122C86.2658 111.122 85.9378 111.219 85.6628 111.414C85.3877 111.604 85.1761 111.88 85.028 112.239C84.8841 112.599 84.8122 113.026 84.8122 113.521V113.534C84.8122 114.042 84.8862 114.478 85.0344 114.842C85.1825 115.206 85.3941 115.487 85.6691 115.686C85.9442 115.881 86.27 115.978 86.6467 115.978C87.0783 115.978 87.4274 115.883 87.694 115.692C87.9649 115.502 88.1553 115.221 88.2653 114.848L88.278 114.816L89.5983 114.81L89.5856 114.867C89.5052 115.316 89.3423 115.709 89.0969 116.048C88.8514 116.386 88.5235 116.653 88.113 116.848C87.7067 117.038 87.218 117.133 86.6467 117.133ZM90.7889 117V110.106H92.1727V117H90.7889ZM91.4871 108.875C91.2502 108.875 91.047 108.79 90.8778 108.621C90.7085 108.452 90.6238 108.249 90.6238 108.012C90.6238 107.775 90.7085 107.574 90.8778 107.409C91.047 107.239 91.2502 107.155 91.4871 107.155C91.7241 107.155 91.9272 107.239 92.0965 107.409C92.2658 107.574 92.3504 107.775 92.3504 108.012C92.3504 108.249 92.2658 108.452 92.0965 108.621C91.9272 108.79 91.7241 108.875 91.4871 108.875ZM96.2959 117.114C95.7203 117.114 95.2168 116.97 94.7851 116.683C94.3577 116.391 94.0255 115.978 93.7885 115.445C93.5558 114.912 93.4394 114.283 93.4394 113.56V113.547C93.4394 112.819 93.5558 112.188 93.7885 111.655C94.0213 111.122 94.3514 110.712 94.7788 110.424C95.2062 110.132 95.7119 109.986 96.2959 109.986C96.6132 109.986 96.9095 110.037 97.1845 110.138C97.4596 110.236 97.7029 110.375 97.9145 110.557C98.1261 110.735 98.2933 110.949 98.416 111.198H98.5175V107.402H99.9013V117H98.5175V115.915H98.416C98.2806 116.164 98.1092 116.38 97.9018 116.562C97.6945 116.74 97.4554 116.877 97.1845 116.975C96.9137 117.068 96.6175 117.114 96.2959 117.114ZM96.6894 115.934C97.0703 115.934 97.4004 115.838 97.6796 115.648C97.9589 115.458 98.1727 115.185 98.3208 114.829C98.4689 114.469 98.5429 114.046 98.5429 113.56V113.547C98.5429 113.056 98.4668 112.633 98.3144 112.277C98.1663 111.922 97.9526 111.649 97.6733 111.458C97.3982 111.264 97.0703 111.167 96.6894 111.167C96.3086 111.167 95.9785 111.264 95.6992 111.458C95.4241 111.649 95.2125 111.922 95.0644 112.277C94.9205 112.629 94.8486 113.052 94.8486 113.547V113.56C94.8486 114.05 94.9205 114.474 95.0644 114.829C95.2125 115.185 95.4241 115.458 95.6992 115.648C95.9785 115.838 96.3086 115.934 96.6894 115.934ZM103.447 117.114C103.011 117.114 102.62 117.032 102.273 116.867C101.93 116.697 101.659 116.458 101.46 116.149C101.261 115.84 101.162 115.479 101.162 115.064V115.051C101.162 114.637 101.261 114.283 101.46 113.991C101.663 113.699 101.955 113.471 102.336 113.306C102.721 113.136 103.187 113.035 103.733 113.001L106.278 112.849V113.82L103.923 113.972C103.449 114.002 103.1 114.103 102.876 114.277C102.651 114.446 102.539 114.685 102.539 114.994V115.007C102.539 115.32 102.66 115.568 102.901 115.75C103.142 115.927 103.447 116.016 103.815 116.016C104.158 116.016 104.463 115.948 104.729 115.813C105 115.673 105.212 115.487 105.364 115.254C105.516 115.017 105.592 114.751 105.592 114.455V112.284C105.592 111.903 105.474 111.613 105.237 111.414C105.004 111.211 104.657 111.109 104.196 111.109C103.811 111.109 103.496 111.177 103.25 111.312C103.009 111.448 102.848 111.638 102.768 111.884L102.755 111.903H101.428L101.435 111.858C101.49 111.478 101.64 111.147 101.885 110.868C102.135 110.585 102.461 110.365 102.863 110.208C103.269 110.051 103.733 109.973 104.253 109.973C104.833 109.973 105.324 110.066 105.726 110.252C106.132 110.434 106.439 110.699 106.646 111.046C106.858 111.389 106.963 111.801 106.963 112.284V117H105.592V116.022H105.491C105.355 116.255 105.186 116.454 104.983 116.619C104.78 116.78 104.549 116.903 104.291 116.987C104.033 117.072 103.752 117.114 103.447 117.114ZM111.03 117.114C110.454 117.114 109.95 116.97 109.519 116.683C109.091 116.391 108.759 115.978 108.522 115.445C108.289 114.912 108.173 114.283 108.173 113.56V113.547C108.173 112.819 108.289 112.188 108.522 111.655C108.755 111.122 109.085 110.712 109.512 110.424C109.94 110.132 110.446 109.986 111.03 109.986C111.347 109.986 111.643 110.037 111.918 110.138C112.193 110.236 112.437 110.375 112.648 110.557C112.86 110.735 113.027 110.949 113.15 111.198H113.251V107.402H114.635V117H113.251V115.915H113.15C113.014 116.164 112.843 116.38 112.635 116.562C112.428 116.74 112.189 116.877 111.918 116.975C111.647 117.068 111.351 117.114 111.03 117.114ZM111.423 115.934C111.804 115.934 112.134 115.838 112.413 115.648C112.693 115.458 112.906 115.185 113.054 114.829C113.203 114.469 113.277 114.046 113.277 113.56V113.547C113.277 113.056 113.2 112.633 113.048 112.277C112.9 111.922 112.686 111.649 112.407 111.458C112.132 111.264 111.804 111.167 111.423 111.167C111.042 111.167 110.712 111.264 110.433 111.458C110.158 111.649 109.946 111.922 109.798 112.277C109.654 112.629 109.582 113.052 109.582 113.547V113.56C109.582 114.05 109.654 114.474 109.798 114.829C109.946 115.185 110.158 115.458 110.433 115.648C110.712 115.838 111.042 115.934 111.423 115.934ZM119.183 117.133C118.511 117.133 117.933 116.989 117.451 116.702C116.968 116.41 116.596 115.997 116.333 115.464C116.075 114.931 115.946 114.3 115.946 113.572V113.566C115.946 112.847 116.075 112.218 116.333 111.681C116.596 111.143 116.964 110.724 117.438 110.424C117.916 110.123 118.475 109.973 119.114 109.973C119.757 109.973 120.309 110.117 120.77 110.405C121.236 110.693 121.593 111.097 121.843 111.617C122.093 112.133 122.218 112.739 122.218 113.433V113.915H116.644V112.931H121.532L120.872 113.845V113.293C120.872 112.802 120.796 112.396 120.643 112.074C120.495 111.748 120.29 111.505 120.028 111.344C119.765 111.183 119.463 111.103 119.12 111.103C118.777 111.103 118.47 111.188 118.2 111.357C117.933 111.522 117.721 111.767 117.565 112.093C117.412 112.419 117.336 112.819 117.336 113.293V113.845C117.336 114.298 117.412 114.685 117.565 115.007C117.717 115.328 117.933 115.574 118.212 115.743C118.496 115.912 118.83 115.997 119.215 115.997C119.511 115.997 119.765 115.957 119.977 115.876C120.193 115.792 120.368 115.688 120.504 115.565C120.643 115.443 120.739 115.322 120.789 115.204L120.815 115.153H122.148L122.135 115.21C122.076 115.438 121.972 115.667 121.824 115.896C121.676 116.12 121.479 116.325 121.234 116.511C120.993 116.697 120.701 116.848 120.358 116.962C120.019 117.076 119.628 117.133 119.183 117.133Z" fill="white"/>
<path d="M307.096 63.8706V62.6772H309.597C310.215 62.6772 310.693 62.5186 311.031 62.2012C311.374 61.8796 311.546 61.4352 311.546 60.8682V60.8555C311.546 60.2799 311.374 59.8335 311.031 59.5161C310.693 59.1987 310.215 59.04 309.597 59.04H307.096V57.8403H309.952C310.553 57.8403 311.08 57.9673 311.533 58.2212C311.99 58.4709 312.347 58.8221 312.606 59.2749C312.864 59.7235 312.993 60.2461 312.993 60.8428V60.8555C312.993 61.4521 312.864 61.979 312.606 62.436C312.347 62.8888 311.99 63.2422 311.533 63.4961C311.08 63.7458 310.553 63.8706 309.952 63.8706H307.096ZM306.385 67V57.8403H307.807V67H306.385ZM314.279 67V60.1064H315.656V61.1475H315.764C315.887 60.7793 316.103 60.4937 316.411 60.2905C316.725 60.0874 317.11 59.9858 317.567 59.9858C317.681 59.9858 317.793 59.9922 317.903 60.0049C318.013 60.0176 318.102 60.0324 318.17 60.0493V61.3188C318.047 61.2935 317.924 61.2744 317.802 61.2617C317.683 61.249 317.558 61.2427 317.427 61.2427C317.076 61.2427 316.767 61.3104 316.5 61.4458C316.238 61.5812 316.031 61.7716 315.878 62.0171C315.73 62.2583 315.656 62.5461 315.656 62.8804V67H314.279ZM321.849 67.1333C321.176 67.1333 320.594 66.9894 320.103 66.7017C319.616 66.4139 319.242 66.0034 318.979 65.4702C318.717 64.9328 318.586 64.2959 318.586 63.5596V63.5469C318.586 62.8063 318.717 62.1694 318.979 61.6362C319.246 61.103 319.623 60.6925 320.109 60.4048C320.6 60.117 321.18 59.9731 321.849 59.9731C322.521 59.9731 323.101 60.117 323.588 60.4048C324.074 60.6883 324.449 61.0988 324.711 61.6362C324.978 62.1694 325.111 62.8063 325.111 63.5469V63.5596C325.111 64.2959 324.978 64.9328 324.711 65.4702C324.449 66.0034 324.074 66.4139 323.588 66.7017C323.105 66.9894 322.526 67.1333 321.849 67.1333ZM321.849 65.978C322.242 65.978 322.576 65.8828 322.852 65.6924C323.127 65.4977 323.336 65.2205 323.48 64.8608C323.624 64.5011 323.696 64.0674 323.696 63.5596V63.5469C323.696 63.0348 323.624 62.599 323.48 62.2393C323.336 61.8796 323.127 61.6045 322.852 61.4141C322.576 61.2194 322.242 61.1221 321.849 61.1221C321.455 61.1221 321.121 61.2194 320.846 61.4141C320.571 61.6045 320.359 61.8796 320.211 62.2393C320.067 62.599 319.995 63.0348 319.995 63.5469V63.5596C319.995 64.0674 320.067 64.5011 320.211 64.8608C320.359 65.2205 320.571 65.4977 320.846 65.6924C321.121 65.8828 321.455 65.978 321.849 65.978ZM329.26 67.1333C328.591 67.1333 328.014 66.9894 327.527 66.7017C327.045 66.4097 326.672 65.995 326.41 65.4575C326.147 64.9201 326.016 64.279 326.016 63.5342V63.5215C326.016 62.7894 326.145 62.1589 326.403 61.6299C326.666 61.1009 327.038 60.6925 327.521 60.4048C328.007 60.117 328.585 59.9731 329.253 59.9731C329.833 59.9731 330.33 60.0747 330.745 60.2778C331.164 60.4767 331.496 60.7518 331.742 61.103C331.991 61.45 332.148 61.8457 332.212 62.29L332.218 62.3218H330.891L330.885 62.3091C330.809 61.9705 330.633 61.6891 330.358 61.4648C330.083 61.2363 329.717 61.1221 329.26 61.1221C328.879 61.1221 328.551 61.2194 328.276 61.4141C328.001 61.6045 327.789 61.8796 327.641 62.2393C327.497 62.599 327.425 63.0264 327.425 63.5215V63.5342C327.425 64.042 327.499 64.4779 327.648 64.8418C327.796 65.2057 328.007 65.4871 328.282 65.686C328.557 65.8807 328.883 65.978 329.26 65.978C329.691 65.978 330.041 65.8828 330.307 65.6924C330.578 65.502 330.768 65.2205 330.878 64.8481L330.891 64.8164L332.212 64.8101L332.199 64.8672C332.118 65.3158 331.955 65.7093 331.71 66.0479C331.465 66.3864 331.137 66.653 330.726 66.8477C330.32 67.0381 329.831 67.1333 329.26 67.1333ZM336.278 67.1333C335.605 67.1333 335.027 66.9894 334.545 66.7017C334.062 66.4097 333.69 65.9971 333.427 65.4639C333.169 64.9307 333.04 64.3001 333.04 63.5723V63.5659C333.04 62.8465 333.169 62.2181 333.427 61.6807C333.69 61.1432 334.058 60.7243 334.532 60.4238C335.01 60.1234 335.569 59.9731 336.208 59.9731C336.851 59.9731 337.403 60.117 337.864 60.4048C338.33 60.6925 338.688 61.0967 338.937 61.6172C339.187 62.1335 339.312 62.7386 339.312 63.4326V63.915H333.738V62.9312H338.626L337.966 63.8452V63.293C337.966 62.8021 337.89 62.3958 337.738 62.0742C337.589 61.7484 337.384 61.505 337.122 61.3442C336.859 61.1834 336.557 61.103 336.214 61.103C335.871 61.103 335.565 61.1877 335.294 61.3569C335.027 61.522 334.815 61.7674 334.659 62.0933C334.507 62.4191 334.43 62.819 334.43 63.293V63.8452C334.43 64.298 334.507 64.6852 334.659 65.0068C334.811 65.3285 335.027 65.5739 335.306 65.7432C335.59 65.9124 335.924 65.9971 336.309 65.9971C336.606 65.9971 336.859 65.9569 337.071 65.8765C337.287 65.7918 337.462 65.6882 337.598 65.5654C337.738 65.4427 337.833 65.3221 337.884 65.2036L337.909 65.1528H339.242L339.229 65.21C339.17 65.4385 339.066 65.667 338.918 65.8955C338.77 66.1198 338.573 66.325 338.328 66.5112C338.087 66.6974 337.795 66.8477 337.452 66.9619C337.113 67.0762 336.722 67.1333 336.278 67.1333ZM343.067 67.1333C342.512 67.1333 342.03 67.0529 341.619 66.8921C341.209 66.7271 340.883 66.5007 340.642 66.2129C340.401 65.9209 340.259 65.5824 340.217 65.1973V65.1846H341.6V65.1973C341.689 65.4554 341.859 65.6649 342.108 65.8257C342.358 65.9865 342.688 66.0669 343.098 66.0669C343.382 66.0669 343.63 66.0267 343.841 65.9463C344.057 65.8659 344.226 65.7537 344.349 65.6099C344.472 65.466 344.533 65.3009 344.533 65.1147V65.1021C344.533 64.8862 344.446 64.7043 344.273 64.5562C344.099 64.408 343.814 64.2874 343.416 64.1943L342.311 63.9404C341.88 63.8431 341.522 63.7098 341.239 63.5405C340.955 63.3713 340.746 63.1639 340.61 62.9185C340.475 62.6688 340.407 62.3768 340.407 62.0425V62.0361C340.407 61.6341 340.521 61.2786 340.75 60.9697C340.978 60.6566 341.294 60.4132 341.696 60.2397C342.102 60.062 342.565 59.9731 343.086 59.9731C343.611 59.9731 344.068 60.0557 344.457 60.2207C344.85 60.3815 345.161 60.6058 345.39 60.8936C345.619 61.1771 345.754 61.5072 345.796 61.8838V61.8901H344.476V61.8774C344.412 61.6362 344.26 61.4352 344.019 61.2744C343.782 61.1136 343.469 61.0332 343.079 61.0332C342.83 61.0332 342.608 61.0734 342.413 61.1538C342.218 61.23 342.064 61.3379 341.95 61.4775C341.84 61.613 341.785 61.7738 341.785 61.96V61.9727C341.785 62.1165 341.821 62.2435 341.892 62.3535C341.969 62.4593 342.087 62.5545 342.248 62.6392C342.409 62.7196 342.616 62.7915 342.87 62.855L343.968 63.1025C344.628 63.2591 345.119 63.4855 345.441 63.7817C345.767 64.078 345.93 64.4757 345.93 64.9751V64.9878C345.93 65.411 345.805 65.7855 345.555 66.1113C345.305 66.4329 344.965 66.6847 344.533 66.8667C344.106 67.0444 343.617 67.1333 343.067 67.1333ZM349.558 67.1333C349.003 67.1333 348.521 67.0529 348.11 66.8921C347.7 66.7271 347.374 66.5007 347.133 66.2129C346.892 65.9209 346.75 65.5824 346.708 65.1973V65.1846H348.091V65.1973C348.18 65.4554 348.349 65.6649 348.599 65.8257C348.849 65.9865 349.179 66.0669 349.589 66.0669C349.873 66.0669 350.12 66.0267 350.332 65.9463C350.548 65.8659 350.717 65.7537 350.84 65.6099C350.963 65.466 351.024 65.3009 351.024 65.1147V65.1021C351.024 64.8862 350.937 64.7043 350.764 64.5562C350.59 64.408 350.305 64.2874 349.907 64.1943L348.802 63.9404C348.371 63.8431 348.013 63.7098 347.729 63.5405C347.446 63.3713 347.236 63.1639 347.101 62.9185C346.966 62.6688 346.898 62.3768 346.898 62.0425V62.0361C346.898 61.6341 347.012 61.2786 347.241 60.9697C347.469 60.6566 347.785 60.4132 348.187 60.2397C348.593 60.062 349.056 59.9731 349.577 59.9731C350.101 59.9731 350.558 60.0557 350.948 60.2207C351.341 60.3815 351.652 60.6058 351.881 60.8936C352.109 61.1771 352.245 61.5072 352.287 61.8838V61.8901H350.967V61.8774C350.903 61.6362 350.751 61.4352 350.51 61.2744C350.273 61.1136 349.96 61.0332 349.57 61.0332C349.321 61.0332 349.098 61.0734 348.904 61.1538C348.709 61.23 348.555 61.3379 348.44 61.4775C348.33 61.613 348.275 61.7738 348.275 61.96V61.9727C348.275 62.1165 348.311 62.2435 348.383 62.3535C348.459 62.4593 348.578 62.5545 348.739 62.6392C348.9 62.7196 349.107 62.7915 349.361 62.855L350.459 63.1025C351.119 63.2591 351.61 63.4855 351.932 63.7817C352.257 64.078 352.42 64.4757 352.42 64.9751V64.9878C352.42 65.411 352.296 65.7855 352.046 66.1113C351.796 66.4329 351.456 66.6847 351.024 66.8667C350.597 67.0444 350.108 67.1333 349.558 67.1333ZM355.56 67.1143C355.124 67.1143 354.732 67.0317 354.385 66.8667C354.043 66.6974 353.772 66.4583 353.573 66.1494C353.374 65.8405 353.275 65.4787 353.275 65.064V65.0513C353.275 64.6366 353.374 64.2832 353.573 63.9912C353.776 63.6992 354.068 63.4707 354.449 63.3057C354.834 63.1364 355.299 63.0348 355.845 63.001L358.391 62.8486V63.8198L356.036 63.9722C355.562 64.0018 355.213 64.1034 354.988 64.2769C354.764 64.4461 354.652 64.6852 354.652 64.9941V65.0068C354.652 65.32 354.773 65.5675 355.014 65.7495C355.255 65.9272 355.56 66.0161 355.928 66.0161C356.271 66.0161 356.575 65.9484 356.842 65.813C357.113 65.6733 357.324 65.4871 357.477 65.2544C357.629 65.0174 357.705 64.7508 357.705 64.4546V62.2837C357.705 61.9028 357.587 61.613 357.35 61.4141C357.117 61.2109 356.77 61.1094 356.309 61.1094C355.924 61.1094 355.608 61.1771 355.363 61.3125C355.122 61.4479 354.961 61.6383 354.881 61.8838L354.868 61.9028H353.541L353.548 61.8584C353.603 61.4775 353.753 61.1475 353.998 60.8682C354.248 60.5846 354.574 60.3646 354.976 60.208C355.382 60.0514 355.845 59.9731 356.366 59.9731C356.946 59.9731 357.436 60.0662 357.839 60.2524C358.245 60.4344 358.552 60.6989 358.759 61.0459C358.971 61.3887 359.076 61.8013 359.076 62.2837V67H357.705V66.0225H357.604C357.468 66.2552 357.299 66.4541 357.096 66.6191C356.893 66.7799 356.662 66.9027 356.404 66.9873C356.146 67.0719 355.864 67.1143 355.56 67.1143ZM360.629 67V60.1064H362.006V61.1665H362.114C362.266 60.7856 362.503 60.4915 362.825 60.2842C363.151 60.0768 363.54 59.9731 363.993 59.9731C364.306 59.9731 364.588 60.0239 364.837 60.1255C365.087 60.2271 365.301 60.3709 365.478 60.5571C365.66 60.7391 365.802 60.9549 365.904 61.2046H366.012C366.126 60.9549 366.287 60.7391 366.494 60.5571C366.701 60.3709 366.942 60.2271 367.218 60.1255C367.497 60.0239 367.793 59.9731 368.106 59.9731C368.572 59.9731 368.97 60.0641 369.3 60.2461C369.63 60.4238 369.881 60.682 370.055 61.0205C370.228 61.359 370.315 61.7674 370.315 62.2456V67H368.938V62.5757C368.938 62.2583 368.889 61.9959 368.792 61.7886C368.694 61.577 368.546 61.4183 368.347 61.3125C368.153 61.2067 367.907 61.1538 367.611 61.1538C367.319 61.1538 367.063 61.2215 366.843 61.3569C366.627 61.4881 366.458 61.6659 366.335 61.8901C366.217 62.1102 366.158 62.3599 366.158 62.6392V67H364.78V62.436C364.78 62.1737 364.725 61.9473 364.615 61.7568C364.509 61.5622 364.357 61.4141 364.158 61.3125C363.959 61.2067 363.724 61.1538 363.453 61.1538C363.178 61.1538 362.931 61.2257 362.711 61.3696C362.495 61.5135 362.324 61.7082 362.197 61.9536C362.07 62.1948 362.006 62.4657 362.006 62.7661V67H360.629ZM374.749 67.1333C374.077 67.1333 373.499 66.9894 373.017 66.7017C372.534 66.4097 372.162 65.9971 371.899 65.4639C371.641 64.9307 371.512 64.3001 371.512 63.5723V63.5659C371.512 62.8465 371.641 62.2181 371.899 61.6807C372.162 61.1432 372.53 60.7243 373.004 60.4238C373.482 60.1234 374.041 59.9731 374.68 59.9731C375.323 59.9731 375.875 60.117 376.336 60.4048C376.802 60.6925 377.159 61.0967 377.409 61.6172C377.659 62.1335 377.784 62.7386 377.784 63.4326V63.915H372.21V62.9312H377.098L376.438 63.8452V63.293C376.438 62.8021 376.362 62.3958 376.209 62.0742C376.061 61.7484 375.856 61.505 375.594 61.3442C375.331 61.1834 375.029 61.103 374.686 61.103C374.343 61.103 374.036 61.1877 373.766 61.3569C373.499 61.522 373.287 61.7674 373.131 62.0933C372.978 62.4191 372.902 62.819 372.902 63.293V63.8452C372.902 64.298 372.978 64.6852 373.131 65.0068C373.283 65.3285 373.499 65.5739 373.778 65.7432C374.062 65.9124 374.396 65.9971 374.781 65.9971C375.077 65.9971 375.331 65.9569 375.543 65.8765C375.759 65.7918 375.934 65.6882 376.07 65.5654C376.209 65.4427 376.305 65.3221 376.355 65.2036L376.381 65.1528H377.714L377.701 65.21C377.642 65.4385 377.538 65.667 377.39 65.8955C377.242 66.1198 377.045 66.325 376.8 66.5112C376.559 66.6974 376.267 66.8477 375.924 66.9619C375.585 67.0762 375.194 67.1333 374.749 67.1333ZM379.031 67V60.1064H380.409V61.1475H380.517C380.686 60.7793 380.936 60.4915 381.266 60.2842C381.596 60.0768 382.013 59.9731 382.516 59.9731C383.291 59.9731 383.883 60.1953 384.294 60.6396C384.704 61.084 384.909 61.7166 384.909 62.5376V67H383.525V62.8613C383.525 62.2858 383.405 61.8584 383.164 61.5791C382.927 61.2956 382.554 61.1538 382.046 61.1538C381.712 61.1538 381.422 61.2279 381.177 61.376C380.931 61.5199 380.741 61.7272 380.606 61.998C380.474 62.2646 380.409 62.5841 380.409 62.9565V67H379.031ZM389.039 67.0444C388.286 67.0444 387.74 66.9006 387.401 66.6128C387.067 66.3208 386.9 65.8447 386.9 65.1846V61.1919H385.821V60.1064H386.9V58.3672H388.309V60.1064H389.788V61.1919H388.309V64.8481C388.309 65.2205 388.383 65.4893 388.531 65.6543C388.679 65.8151 388.925 65.8955 389.267 65.8955C389.369 65.8955 389.456 65.8934 389.528 65.8892C389.604 65.8849 389.69 65.8786 389.788 65.8701V66.9746C389.678 66.9915 389.559 67.0063 389.432 67.019C389.305 67.036 389.174 67.0444 389.039 67.0444ZM393.854 67.1333C393.181 67.1333 392.599 66.9894 392.108 66.7017C391.622 66.4139 391.247 66.0034 390.985 65.4702C390.722 64.9328 390.591 64.2959 390.591 63.5596V63.5469C390.591 62.8063 390.722 62.1694 390.985 61.6362C391.251 61.103 391.628 60.6925 392.115 60.4048C392.605 60.117 393.185 59.9731 393.854 59.9731C394.527 59.9731 395.106 60.117 395.593 60.4048C396.08 60.6883 396.454 61.0988 396.717 61.6362C396.983 62.1694 397.117 62.8063 397.117 63.5469V63.5596C397.117 64.2959 396.983 64.9328 396.717 65.4702C396.454 66.0034 396.08 66.4139 395.593 66.7017C395.111 66.9894 394.531 67.1333 393.854 67.1333ZM393.854 65.978C394.247 65.978 394.582 65.8828 394.857 65.6924C395.132 65.4977 395.341 65.2205 395.485 64.8608C395.629 64.5011 395.701 64.0674 395.701 63.5596V63.5469C395.701 63.0348 395.629 62.599 395.485 62.2393C395.341 61.8796 395.132 61.6045 394.857 61.4141C394.582 61.2194 394.247 61.1221 393.854 61.1221C393.46 61.1221 393.126 61.2194 392.851 61.4141C392.576 61.6045 392.364 61.8796 392.216 62.2393C392.072 62.599 392 63.0348 392 63.5469V63.5596C392 64.0674 392.072 64.5011 392.216 64.8608C392.364 65.2205 392.576 65.4977 392.851 65.6924C393.126 65.8828 393.46 65.978 393.854 65.978Z" fill="white"/>
<g filter="url(#filter4_d_42_43)">
<path d="M582.688 244.322C581.627 244.322 580.702 244.156 579.914 243.824C579.127 243.486 578.502 243.02 578.039 242.428C577.584 241.829 577.323 241.129 577.258 240.328L577.248 240.201H579.407L579.416 240.309C579.468 240.738 579.638 241.109 579.924 241.422C580.217 241.734 580.608 241.979 581.096 242.154C581.591 242.324 582.151 242.408 582.776 242.408C583.381 242.408 583.912 242.317 584.368 242.135C584.83 241.952 585.191 241.695 585.452 241.363C585.712 241.031 585.842 240.647 585.842 240.211V240.201C585.842 239.654 585.637 239.208 585.227 238.863C584.823 238.512 584.153 238.235 583.215 238.033L581.682 237.701C580.263 237.395 579.224 236.913 578.567 236.256C577.909 235.592 577.58 234.742 577.58 233.707V233.697C577.587 232.883 577.808 232.171 578.245 231.559C578.681 230.94 579.283 230.458 580.051 230.113C580.819 229.762 581.702 229.586 582.698 229.586C583.687 229.586 584.553 229.758 585.295 230.104C586.044 230.442 586.633 230.908 587.063 231.5C587.499 232.086 587.743 232.75 587.795 233.492L587.805 233.629H585.676L585.657 233.512C585.592 233.108 585.429 232.757 585.168 232.457C584.914 232.158 584.573 231.923 584.143 231.754C583.72 231.578 583.225 231.493 582.659 231.5C582.105 231.5 581.614 231.585 581.184 231.754C580.754 231.917 580.416 232.154 580.168 232.467C579.927 232.779 579.807 233.154 579.807 233.59V233.6C579.807 234.12 580.006 234.553 580.403 234.898C580.806 235.243 581.461 235.514 582.366 235.709L583.899 236.041C584.882 236.249 585.679 236.526 586.291 236.871C586.903 237.216 587.353 237.643 587.639 238.15C587.926 238.658 588.069 239.264 588.069 239.967V239.977C588.069 240.868 587.847 241.64 587.405 242.291C586.968 242.936 586.347 243.437 585.539 243.795C584.739 244.146 583.788 244.322 582.688 244.322ZM594.354 244.205C593.331 244.205 592.446 243.987 591.697 243.551C590.949 243.108 590.372 242.48 589.969 241.666C589.565 240.846 589.363 239.872 589.363 238.746V238.727C589.363 237.594 589.565 236.62 589.969 235.807C590.379 234.993 590.955 234.368 591.697 233.932C592.446 233.489 593.328 233.268 594.344 233.268C595.372 233.268 596.258 233.489 597 233.932C597.742 234.368 598.315 234.993 598.719 235.807C599.129 236.62 599.334 237.594 599.334 238.727V238.746C599.334 239.872 599.132 240.846 598.729 241.666C598.325 242.48 597.749 243.108 597 243.551C596.258 243.987 595.376 244.205 594.354 244.205ZM594.354 242.428C594.946 242.428 595.451 242.281 595.867 241.988C596.284 241.695 596.603 241.275 596.824 240.729C597.052 240.182 597.166 239.521 597.166 238.746V238.727C597.166 237.945 597.052 237.281 596.824 236.734C596.603 236.188 596.281 235.771 595.857 235.484C595.441 235.191 594.936 235.045 594.344 235.045C593.758 235.045 593.253 235.191 592.83 235.484C592.413 235.771 592.091 236.188 591.863 236.734C591.642 237.281 591.531 237.945 591.531 238.727V238.746C591.531 239.521 591.642 240.185 591.863 240.738C592.091 241.285 592.413 241.705 592.83 241.998C593.253 242.285 593.761 242.428 594.354 242.428ZM601.146 244V229.391H603.265V244H601.146ZM609.111 244.205C608.329 244.205 607.668 244.052 607.128 243.746C606.588 243.434 606.181 242.984 605.907 242.398C605.64 241.812 605.507 241.109 605.507 240.289V233.473H607.626V239.811C607.626 240.663 607.799 241.305 608.144 241.734C608.495 242.164 609.055 242.379 609.823 242.379C610.234 242.379 610.595 242.317 610.907 242.193C611.226 242.063 611.497 241.881 611.718 241.646C611.939 241.406 612.105 241.116 612.216 240.777C612.327 240.439 612.382 240.061 612.382 239.645V233.473H614.501V244H612.382V242.408H612.245C612.076 242.779 611.845 243.102 611.552 243.375C611.259 243.642 610.907 243.847 610.497 243.99C610.094 244.133 609.631 244.205 609.111 244.205ZM621.177 244.205C620.154 244.205 619.272 243.984 618.53 243.541C617.788 243.092 617.215 242.457 616.811 241.637C616.414 240.816 616.216 239.843 616.216 238.717V238.697C616.216 237.584 616.414 236.62 616.811 235.807C617.215 234.993 617.788 234.368 618.53 233.932C619.272 233.489 620.151 233.268 621.167 233.268C622.059 233.268 622.824 233.427 623.462 233.746C624.106 234.059 624.617 234.485 624.995 235.025C625.373 235.566 625.604 236.174 625.688 236.852L625.698 236.91H623.657L623.647 236.871C623.53 236.35 623.263 235.917 622.846 235.572C622.43 235.221 621.873 235.045 621.177 235.045C620.597 235.045 620.099 235.191 619.682 235.484C619.266 235.777 618.943 236.197 618.716 236.744C618.494 237.291 618.384 237.942 618.384 238.697V238.717C618.384 239.492 618.498 240.156 618.725 240.709C618.953 241.262 619.276 241.689 619.692 241.988C620.109 242.281 620.604 242.428 621.177 242.428C621.841 242.428 622.378 242.275 622.788 241.969C623.198 241.663 623.481 241.227 623.637 240.66L623.657 240.602H625.688L625.679 240.68C625.561 241.37 625.314 241.979 624.936 242.506C624.559 243.033 624.054 243.45 623.423 243.756C622.798 244.055 622.049 244.205 621.177 244.205ZM620.864 248.756C620.578 248.756 620.301 248.736 620.034 248.697C619.774 248.665 619.533 248.619 619.311 248.561V247.359C619.402 247.385 619.555 247.415 619.77 247.447C619.985 247.48 620.223 247.496 620.483 247.496C620.77 247.496 621.033 247.447 621.274 247.35C621.515 247.252 621.636 247.073 621.636 246.812V246.793C621.636 246.513 621.518 246.318 621.284 246.207C621.05 246.103 620.705 246.051 620.249 246.051H619.868V245.152L620.805 243.775H622.143V244L621.489 244.947C622.088 244.967 622.57 245.136 622.934 245.455C623.305 245.774 623.491 246.204 623.491 246.744V246.764C623.491 247.219 623.371 247.594 623.13 247.887C622.889 248.18 622.57 248.398 622.173 248.541C621.776 248.684 621.339 248.756 620.864 248.756ZM630.215 244.186C629.538 244.186 628.936 244.055 628.409 243.795C627.888 243.535 627.474 243.17 627.168 242.701C626.869 242.226 626.719 241.669 626.719 241.031V241.012C626.719 240.387 626.872 239.853 627.178 239.41C627.484 238.961 627.93 238.609 628.516 238.355C629.102 238.095 629.812 237.942 630.645 237.896L634.551 237.662V239.156L630.928 239.381C630.225 239.42 629.701 239.573 629.356 239.84C629.011 240.107 628.838 240.471 628.838 240.934V240.953C628.838 241.435 629.021 241.812 629.385 242.086C629.75 242.353 630.218 242.486 630.791 242.486C631.306 242.486 631.768 242.382 632.178 242.174C632.588 241.959 632.911 241.673 633.145 241.314C633.379 240.956 633.496 240.549 633.496 240.094V236.822C633.496 236.249 633.314 235.807 632.95 235.494C632.592 235.182 632.064 235.025 631.368 235.025C630.769 235.025 630.284 235.136 629.912 235.357C629.541 235.572 629.297 235.872 629.18 236.256L629.161 236.305H627.129L627.139 236.217C627.217 235.637 627.442 235.126 627.813 234.684C628.19 234.241 628.685 233.896 629.297 233.648C629.916 233.395 630.632 233.268 631.446 233.268C632.325 233.268 633.073 233.411 633.692 233.697C634.317 233.977 634.792 234.381 635.118 234.908C635.443 235.429 635.606 236.054 635.606 236.783V244H633.496V242.467H633.36C633.151 242.825 632.891 243.134 632.579 243.395C632.266 243.648 631.911 243.844 631.514 243.98C631.117 244.117 630.684 244.186 630.215 244.186ZM632.911 232.037C632.559 232.037 632.25 231.965 631.983 231.822C631.716 231.679 631.455 231.49 631.202 231.256L631.016 231.09C630.834 230.927 630.681 230.813 630.557 230.748C630.433 230.683 630.303 230.65 630.166 230.65C629.945 230.65 629.773 230.764 629.649 230.992C629.532 231.214 629.473 231.552 629.473 232.008V232.047H627.998V231.949C627.998 231.083 628.174 230.406 628.526 229.918C628.877 229.43 629.362 229.186 629.981 229.186C630.332 229.186 630.638 229.257 630.899 229.4C631.166 229.537 631.426 229.723 631.68 229.957L631.866 230.123C632.048 230.286 632.201 230.403 632.325 230.475C632.455 230.54 632.585 230.572 632.715 230.572C632.943 230.572 633.116 230.458 633.233 230.23C633.357 230.003 633.418 229.664 633.418 229.215V229.166H634.893V229.264C634.893 230.13 634.717 230.81 634.366 231.305C634.014 231.793 633.529 232.037 632.911 232.037ZM642.252 244.205C641.23 244.205 640.344 243.987 639.596 243.551C638.847 243.108 638.271 242.48 637.867 241.666C637.464 240.846 637.262 239.872 637.262 238.746V238.727C637.262 237.594 637.464 236.62 637.867 235.807C638.277 234.993 638.854 234.368 639.596 233.932C640.344 233.489 641.227 233.268 642.242 233.268C643.271 233.268 644.156 233.489 644.898 233.932C645.641 234.368 646.214 234.993 646.617 235.807C647.027 236.62 647.232 237.594 647.232 238.727V238.746C647.232 239.872 647.031 240.846 646.627 241.666C646.223 242.48 645.647 243.108 644.898 243.551C644.156 243.987 643.274 244.205 642.252 244.205ZM642.252 242.428C642.844 242.428 643.349 242.281 643.766 241.988C644.182 241.695 644.501 241.275 644.723 240.729C644.951 240.182 645.064 239.521 645.064 238.746V238.727C645.064 237.945 644.951 237.281 644.723 236.734C644.501 236.188 644.179 235.771 643.756 235.484C643.339 235.191 642.835 235.045 642.242 235.045C641.656 235.045 641.152 235.191 640.729 235.484C640.312 235.771 639.99 236.188 639.762 236.734C639.54 237.281 639.43 237.945 639.43 238.727V238.746C639.43 239.521 639.54 240.185 639.762 240.738C639.99 241.285 640.312 241.705 640.729 241.998C641.152 242.285 641.66 242.428 642.252 242.428ZM653.464 247.506V233.473H655.593V235.162H655.73C655.932 234.771 656.192 234.436 656.511 234.156C656.83 233.876 657.195 233.661 657.605 233.512C658.021 233.362 658.477 233.287 658.972 233.287C659.864 233.287 660.635 233.512 661.286 233.961C661.944 234.404 662.452 235.032 662.81 235.846C663.168 236.66 663.347 237.62 663.347 238.727V238.746C663.347 239.859 663.168 240.823 662.81 241.637C662.452 242.451 661.947 243.079 661.296 243.521C660.645 243.964 659.874 244.186 658.982 244.186C658.493 244.186 658.038 244.111 657.614 243.961C657.198 243.805 656.827 243.587 656.501 243.307C656.176 243.027 655.918 242.695 655.73 242.311H655.593V247.506H653.464ZM658.376 242.369C658.962 242.369 659.463 242.223 659.88 241.93C660.297 241.637 660.616 241.22 660.837 240.68C661.065 240.139 661.179 239.495 661.179 238.746V238.727C661.179 237.971 661.065 237.324 660.837 236.783C660.616 236.243 660.297 235.829 659.88 235.543C659.463 235.25 658.962 235.104 658.376 235.104C657.803 235.104 657.305 235.25 656.882 235.543C656.459 235.836 656.133 236.253 655.905 236.793C655.678 237.333 655.564 237.978 655.564 238.727V238.746C655.564 239.488 655.678 240.13 655.905 240.67C656.14 241.21 656.465 241.63 656.882 241.93C657.305 242.223 657.803 242.369 658.376 242.369ZM668.011 244.186C667.333 244.186 666.731 244.055 666.204 243.795C665.683 243.535 665.27 243.17 664.964 242.701C664.664 242.226 664.514 241.669 664.514 241.031V241.012C664.514 240.387 664.667 239.853 664.973 239.41C665.279 238.961 665.725 238.609 666.311 238.355C666.897 238.095 667.607 237.942 668.44 237.896L672.346 237.662V239.156L668.723 239.381C668.02 239.42 667.496 239.573 667.151 239.84C666.806 240.107 666.634 240.471 666.634 240.934V240.953C666.634 241.435 666.816 241.812 667.18 242.086C667.545 242.353 668.014 242.486 668.587 242.486C669.101 242.486 669.563 242.382 669.973 242.174C670.384 241.959 670.706 241.673 670.94 241.314C671.175 240.956 671.292 240.549 671.292 240.094V236.822C671.292 236.249 671.11 235.807 670.745 235.494C670.387 235.182 669.86 235.025 669.163 235.025C668.564 235.025 668.079 235.136 667.708 235.357C667.337 235.572 667.093 235.872 666.975 236.256L666.956 236.305H664.925L664.934 236.217C665.012 235.637 665.237 235.126 665.608 234.684C665.986 234.241 666.481 233.896 667.093 233.648C667.711 233.395 668.427 233.268 669.241 233.268C670.12 233.268 670.869 233.411 671.487 233.697C672.112 233.977 672.587 234.381 672.913 234.908C673.238 235.429 673.401 236.054 673.401 236.783V244H671.292V242.467H671.155C670.947 242.825 670.686 243.134 670.374 243.395C670.061 243.648 669.707 243.844 669.309 243.98C668.912 244.117 668.479 244.186 668.011 244.186ZM675.565 244V233.473H677.694V235.113H677.83C678.013 234.534 678.335 234.085 678.797 233.766C679.26 233.447 679.829 233.287 680.506 233.287C680.676 233.287 680.838 233.297 680.995 233.316C681.157 233.336 681.287 233.355 681.385 233.375V235.338C681.222 235.299 681.05 235.27 680.868 235.25C680.685 235.224 680.493 235.211 680.291 235.211C679.771 235.211 679.315 235.315 678.924 235.523C678.534 235.725 678.231 236.015 678.016 236.393C677.801 236.764 677.694 237.203 677.694 237.711V244H675.565ZM685.482 244.186C684.805 244.186 684.203 244.055 683.676 243.795C683.155 243.535 682.742 243.17 682.436 242.701C682.136 242.226 681.986 241.669 681.986 241.031V241.012C681.986 240.387 682.139 239.853 682.445 239.41C682.751 238.961 683.197 238.609 683.783 238.355C684.369 238.095 685.079 237.942 685.912 237.896L689.818 237.662V239.156L686.195 239.381C685.492 239.42 684.968 239.573 684.623 239.84C684.278 240.107 684.105 240.471 684.105 240.934V240.953C684.105 241.435 684.288 241.812 684.652 242.086C685.017 242.353 685.486 242.486 686.059 242.486C686.573 242.486 687.035 242.382 687.445 242.174C687.855 241.959 688.178 241.673 688.412 241.314C688.646 240.956 688.764 240.549 688.764 240.094V236.822C688.764 236.249 688.581 235.807 688.217 235.494C687.859 235.182 687.331 235.025 686.635 235.025C686.036 235.025 685.551 235.136 685.18 235.357C684.809 235.572 684.564 235.872 684.447 236.256L684.428 236.305H682.396L682.406 236.217C682.484 235.637 682.709 235.126 683.08 234.684C683.458 234.241 683.952 233.896 684.564 233.648C685.183 233.395 685.899 233.268 686.713 233.268C687.592 233.268 688.34 233.411 688.959 233.697C689.584 233.977 690.059 234.381 690.385 234.908C690.71 235.429 690.873 236.054 690.873 236.783V244H688.764V242.467H688.627C688.419 242.825 688.158 243.134 687.846 243.395C687.533 243.648 687.178 243.844 686.781 243.98C686.384 244.117 685.951 244.186 685.482 244.186ZM620.434 264.186C619.757 264.186 619.155 264.055 618.628 263.795C618.107 263.535 617.693 263.17 617.388 262.701C617.088 262.226 616.938 261.669 616.938 261.031V261.012C616.938 260.387 617.091 259.853 617.397 259.41C617.703 258.961 618.149 258.609 618.735 258.355C619.321 258.095 620.031 257.942 620.864 257.896L624.77 257.662V259.156L621.147 259.381C620.444 259.42 619.92 259.573 619.575 259.84C619.23 260.107 619.057 260.471 619.057 260.934V260.953C619.057 261.435 619.24 261.812 619.604 262.086C619.969 262.353 620.438 262.486 621.011 262.486C621.525 262.486 621.987 262.382 622.397 262.174C622.807 261.959 623.13 261.673 623.364 261.314C623.598 260.956 623.716 260.549 623.716 260.094V256.822C623.716 256.249 623.533 255.807 623.169 255.494C622.811 255.182 622.283 255.025 621.587 255.025C620.988 255.025 620.503 255.136 620.132 255.357C619.761 255.572 619.516 255.872 619.399 256.256L619.38 256.305H617.348L617.358 256.217C617.436 255.637 617.661 255.126 618.032 254.684C618.41 254.241 618.904 253.896 619.516 253.648C620.135 253.395 620.851 253.268 621.665 253.268C622.544 253.268 623.292 253.411 623.911 253.697C624.536 253.977 625.011 254.381 625.337 254.908C625.662 255.429 625.825 256.054 625.825 256.783V264H623.716V262.467H623.579C623.371 262.825 623.11 263.134 622.798 263.395C622.485 263.648 622.13 263.844 621.733 263.98C621.336 264.117 620.903 264.186 620.434 264.186ZM635.406 264L631.598 253.473H633.854L636.48 261.871H636.617L639.234 253.473H641.471L637.672 264H635.406ZM642.834 264V253.473H644.953V264H642.834ZM643.898 251.656C643.54 251.656 643.231 251.529 642.97 251.275C642.716 251.015 642.589 250.709 642.589 250.357C642.589 249.993 642.716 249.687 642.97 249.439C643.231 249.186 643.54 249.059 643.898 249.059C644.263 249.059 644.572 249.186 644.826 249.439C645.08 249.687 645.207 249.993 645.207 250.357C645.207 250.709 645.08 251.015 644.826 251.275C644.572 251.529 644.263 251.656 643.898 251.656ZM650.163 264.186C649.486 264.186 648.884 264.055 648.357 263.795C647.836 263.535 647.422 263.17 647.116 262.701C646.817 262.226 646.667 261.669 646.667 261.031V261.012C646.667 260.387 646.82 259.853 647.126 259.41C647.432 258.961 647.878 258.609 648.464 258.355C649.05 258.095 649.76 257.942 650.593 257.896L654.499 257.662V259.156L650.876 259.381C650.173 259.42 649.649 259.573 649.304 259.84C648.959 260.107 648.786 260.471 648.786 260.934V260.953C648.786 261.435 648.969 261.812 649.333 262.086C649.698 262.353 650.167 262.486 650.739 262.486C651.254 262.486 651.716 262.382 652.126 262.174C652.536 261.959 652.859 261.673 653.093 261.314C653.327 260.956 653.445 260.549 653.445 260.094V256.822C653.445 256.249 653.262 255.807 652.898 255.494C652.54 255.182 652.012 255.025 651.316 255.025C650.717 255.025 650.232 255.136 649.861 255.357C649.489 255.572 649.245 255.872 649.128 256.256L649.109 256.305H647.077L647.087 256.217C647.165 255.637 647.39 255.126 647.761 254.684C648.139 254.241 648.633 253.896 649.245 253.648C649.864 253.395 650.58 253.268 651.394 253.268C652.273 253.268 653.021 253.411 653.64 253.697C654.265 253.977 654.74 254.381 655.066 254.908C655.391 255.429 655.554 256.054 655.554 256.783V264H653.445V262.467H653.308C653.099 262.825 652.839 263.134 652.527 263.395C652.214 263.648 651.859 263.844 651.462 263.98C651.065 264.117 650.632 264.186 650.163 264.186Z" fill="#FDFD2F"/>
</g>
<path d="M78.0403 204.222C77.1939 204.222 76.4597 204.028 75.8376 203.638C75.2198 203.249 74.7437 202.697 74.4094 201.981C74.0751 201.266 73.9079 200.416 73.9079 199.43V199.417C73.9079 198.427 74.0751 197.574 74.4094 196.859C74.7437 196.144 75.2198 195.591 75.8376 195.202C76.4555 194.813 77.1897 194.618 78.0403 194.618C78.7131 194.618 79.3204 194.751 79.862 195.018C80.4079 195.28 80.8544 195.644 81.2014 196.11C81.5526 196.575 81.7663 197.111 81.8425 197.716V197.754H80.427L80.4206 197.729C80.336 197.352 80.1815 197.026 79.9572 196.751C79.733 196.476 79.4579 196.262 79.1321 196.11C78.8062 195.958 78.4423 195.881 78.0403 195.881C77.4944 195.881 77.0204 196.025 76.6184 196.313C76.2206 196.601 75.9117 197.009 75.6916 197.538C75.4758 198.063 75.3679 198.689 75.3679 199.417V199.43C75.3679 200.149 75.4758 200.773 75.6916 201.302C75.9117 201.831 76.2206 202.24 76.6184 202.527C77.0204 202.815 77.4965 202.959 78.0466 202.959C78.4486 202.959 78.8126 202.891 79.1384 202.756C79.4685 202.62 79.7435 202.428 79.9636 202.178C80.1836 201.924 80.3339 201.626 80.4143 201.283L80.427 201.258H81.8488L81.8425 201.29C81.7536 201.878 81.5378 202.392 81.195 202.832C80.8523 203.272 80.4122 203.615 79.8747 203.86C79.3373 204.102 78.7258 204.222 78.0403 204.222ZM83.2298 204V194.402H84.6073V204H83.2298ZM86.2866 204V197.106H87.6704V204H86.2866ZM86.9849 195.875C86.7479 195.875 86.5448 195.79 86.3755 195.621C86.2062 195.452 86.1216 195.249 86.1216 195.012C86.1216 194.775 86.2062 194.574 86.3755 194.409C86.5448 194.239 86.7479 194.155 86.9849 194.155C87.2218 194.155 87.425 194.239 87.5942 194.409C87.7635 194.574 87.8481 194.775 87.8481 195.012C87.8481 195.249 87.7635 195.452 87.5942 195.621C87.425 195.79 87.2218 195.875 86.9849 195.875ZM89.2799 204V197.106H90.6574V198.167H90.7653C90.9176 197.786 91.1546 197.492 91.4762 197.284C91.8021 197.077 92.1914 196.973 92.6442 196.973C92.9573 196.973 93.2387 197.024 93.4884 197.125C93.7381 197.227 93.9518 197.371 94.1295 197.557C94.3115 197.739 94.4533 197.955 94.5548 198.205H94.6627C94.777 197.955 94.9378 197.739 95.1452 197.557C95.3525 197.371 95.5937 197.227 95.8688 197.125C96.1481 197.024 96.4443 196.973 96.7575 196.973C97.223 196.973 97.6207 197.064 97.9508 197.246C98.2809 197.424 98.5327 197.682 98.7062 198.021C98.8797 198.359 98.9664 198.767 98.9664 199.246V204H97.589V199.576C97.589 199.258 97.5403 198.996 97.443 198.789C97.3457 198.577 97.1976 198.418 96.9987 198.312C96.804 198.207 96.5586 198.154 96.2623 198.154C95.9704 198.154 95.7143 198.222 95.4943 198.357C95.2785 198.488 95.1092 198.666 94.9865 198.89C94.868 199.11 94.8087 199.36 94.8087 199.639V204H93.4313V199.436C93.4313 199.174 93.3763 198.947 93.2663 198.757C93.1605 198.562 93.0081 198.414 92.8092 198.312C92.6103 198.207 92.3755 198.154 92.1046 198.154C91.8296 198.154 91.582 198.226 91.362 198.37C91.1461 198.514 90.9747 198.708 90.8478 198.954C90.7208 199.195 90.6574 199.466 90.6574 199.766V204H89.2799ZM102.398 204.114C101.962 204.114 101.57 204.032 101.223 203.867C100.881 203.697 100.61 203.458 100.411 203.149C100.212 202.84 100.113 202.479 100.113 202.064V202.051C100.113 201.637 100.212 201.283 100.411 200.991C100.614 200.699 100.906 200.471 101.287 200.306C101.672 200.136 102.137 200.035 102.683 200.001L105.229 199.849V200.82L102.874 200.972C102.4 201.002 102.051 201.103 101.826 201.277C101.602 201.446 101.49 201.685 101.49 201.994V202.007C101.49 202.32 101.611 202.568 101.852 202.75C102.093 202.927 102.398 203.016 102.766 203.016C103.109 203.016 103.413 202.948 103.68 202.813C103.951 202.673 104.162 202.487 104.315 202.254C104.467 202.017 104.543 201.751 104.543 201.455V199.284C104.543 198.903 104.425 198.613 104.188 198.414C103.955 198.211 103.608 198.109 103.147 198.109C102.762 198.109 102.446 198.177 102.201 198.312C101.96 198.448 101.799 198.638 101.719 198.884L101.706 198.903H100.379L100.386 198.858C100.441 198.478 100.591 198.147 100.836 197.868C101.086 197.585 101.412 197.365 101.814 197.208C102.22 197.051 102.683 196.973 103.204 196.973C103.784 196.973 104.275 197.066 104.677 197.252C105.083 197.434 105.39 197.699 105.597 198.046C105.809 198.389 105.914 198.801 105.914 199.284V204H104.543V203.022H104.442C104.306 203.255 104.137 203.454 103.934 203.619C103.731 203.78 103.5 203.903 103.242 203.987C102.984 204.072 102.702 204.114 102.398 204.114Z" fill="white"/>
<path d="M67.4615 284V274.84H68.8834V278.712H73.5806V274.84H75.0089V284H73.5806V279.944H68.8834V284H67.4615ZM79.6843 284.133C79.0114 284.133 78.4296 283.989 77.9387 283.702C77.452 283.414 77.0775 283.003 76.8152 282.47C76.5528 281.933 76.4216 281.296 76.4216 280.56V280.547C76.4216 279.806 76.5528 279.169 76.8152 278.636C77.0818 278.103 77.4584 277.693 77.945 277.405C78.4359 277.117 79.0157 276.973 79.6843 276.973C80.3571 276.973 80.9369 277.117 81.4236 277.405C81.9102 277.688 82.2847 278.099 82.5471 278.636C82.8137 279.169 82.947 279.806 82.947 280.547V280.56C82.947 281.296 82.8137 281.933 82.5471 282.47C82.2847 283.003 81.9102 283.414 81.4236 283.702C80.9411 283.989 80.3614 284.133 79.6843 284.133ZM79.6843 282.978C80.0779 282.978 80.4122 282.883 80.6872 282.692C80.9623 282.498 81.1718 282.221 81.3156 281.861C81.4595 281.501 81.5315 281.067 81.5315 280.56V280.547C81.5315 280.035 81.4595 279.599 81.3156 279.239C81.1718 278.88 80.9623 278.604 80.6872 278.414C80.4122 278.219 80.0779 278.122 79.6843 278.122C79.2907 278.122 78.9564 278.219 78.6814 278.414C78.4063 278.604 78.1947 278.88 78.0466 279.239C77.9027 279.599 77.8308 280.035 77.8308 280.547V280.56C77.8308 281.067 77.9027 281.501 78.0466 281.861C78.1947 282.221 78.4063 282.498 78.6814 282.692C78.9564 282.883 79.2907 282.978 79.6843 282.978ZM84.1947 284V277.106H85.5721V278.147H85.68C85.8028 277.779 86.0186 277.494 86.3275 277.291C86.6407 277.087 87.0257 276.986 87.4828 276.986C87.597 276.986 87.7092 276.992 87.8192 277.005C87.9292 277.018 88.0181 277.032 88.0858 277.049V278.319C87.9631 278.293 87.8404 278.274 87.7176 278.262C87.5991 278.249 87.4743 278.243 87.3431 278.243C86.9919 278.243 86.683 278.31 86.4164 278.446C86.154 278.581 85.9466 278.772 85.7943 279.017C85.6462 279.258 85.5721 279.546 85.5721 279.88V284H84.1947ZM90.8633 284.114C90.4274 284.114 90.036 284.032 89.689 283.867C89.3462 283.697 89.0754 283.458 88.8765 283.149C88.6776 282.84 88.5781 282.479 88.5781 282.064V282.051C88.5781 281.637 88.6776 281.283 88.8765 280.991C89.0796 280.699 89.3716 280.471 89.7524 280.306C90.1375 280.136 90.603 280.035 91.1489 280.001L93.6943 279.849V280.82L91.3394 280.972C90.8654 281.002 90.5163 281.103 90.292 281.277C90.0677 281.446 89.9556 281.685 89.9556 281.994V282.007C89.9556 282.32 90.0762 282.568 90.3174 282.75C90.5586 282.927 90.8633 283.016 91.2314 283.016C91.5742 283.016 91.8789 282.948 92.1455 282.813C92.4163 282.673 92.6279 282.487 92.7803 282.254C92.9326 282.017 93.0088 281.751 93.0088 281.455V279.284C93.0088 278.903 92.8903 278.613 92.6533 278.414C92.4206 278.211 92.0736 278.109 91.6123 278.109C91.2272 278.109 90.9119 278.177 90.6665 278.312C90.4253 278.448 90.2645 278.638 90.1841 278.884L90.1714 278.903H88.8447L88.8511 278.858C88.9061 278.478 89.0563 278.147 89.3018 277.868C89.5514 277.585 89.8773 277.365 90.2793 277.208C90.6855 277.051 91.1489 276.973 91.6694 276.973C92.2492 276.973 92.7401 277.066 93.1421 277.252C93.5483 277.434 93.8551 277.699 94.0625 278.046C94.2741 278.389 94.3799 278.801 94.3799 279.284V284H93.0088V283.022H92.9072C92.7718 283.255 92.6025 283.454 92.3994 283.619C92.1963 283.78 91.9657 283.903 91.7075 283.987C91.4494 284.072 91.168 284.114 90.8633 284.114ZM101.598 284.114C101.022 284.114 100.519 283.97 100.087 283.683C99.6598 283.391 99.3276 282.978 99.0906 282.445C98.8579 281.912 98.7415 281.283 98.7415 280.56V280.547C98.7415 279.819 98.8579 279.188 99.0906 278.655C99.3234 278.122 99.6534 277.712 100.081 277.424C100.508 277.132 101.014 276.986 101.598 276.986C101.915 276.986 102.212 277.037 102.487 277.138C102.762 277.236 103.005 277.375 103.217 277.557C103.428 277.735 103.595 277.949 103.718 278.198H103.82V274.402H105.203V284H103.82V282.915H103.718C103.583 283.164 103.411 283.38 103.204 283.562C102.997 283.74 102.757 283.877 102.487 283.975C102.216 284.068 101.92 284.114 101.598 284.114ZM101.991 282.934C102.372 282.934 102.702 282.838 102.982 282.648C103.261 282.458 103.475 282.185 103.623 281.829C103.771 281.469 103.845 281.046 103.845 280.56V280.547C103.845 280.056 103.769 279.633 103.616 279.277C103.468 278.922 103.255 278.649 102.975 278.458C102.7 278.264 102.372 278.167 101.991 278.167C101.611 278.167 101.281 278.264 101.001 278.458C100.726 278.649 100.515 278.922 100.366 279.277C100.223 279.629 100.151 280.052 100.151 280.547V280.56C100.151 281.05 100.223 281.474 100.366 281.829C100.515 282.185 100.726 282.458 101.001 282.648C101.281 282.838 101.611 282.934 101.991 282.934ZM109.777 284.133C109.104 284.133 108.523 283.989 108.032 283.702C107.545 283.414 107.17 283.003 106.908 282.47C106.646 281.933 106.515 281.296 106.515 280.56V280.547C106.515 279.806 106.646 279.169 106.908 278.636C107.175 278.103 107.551 277.693 108.038 277.405C108.529 277.117 109.109 276.973 109.777 276.973C110.45 276.973 111.03 277.117 111.517 277.405C112.003 277.688 112.378 278.099 112.64 278.636C112.907 279.169 113.04 279.806 113.04 280.547V280.56C113.04 281.296 112.907 281.933 112.64 282.47C112.378 283.003 112.003 283.414 111.517 283.702C111.034 283.989 110.454 284.133 109.777 284.133ZM109.777 282.978C110.171 282.978 110.505 282.883 110.78 282.692C111.055 282.498 111.265 282.221 111.409 281.861C111.552 281.501 111.624 281.067 111.624 280.56V280.547C111.624 280.035 111.552 279.599 111.409 279.239C111.265 278.88 111.055 278.604 110.78 278.414C110.505 278.219 110.171 278.122 109.777 278.122C109.384 278.122 109.049 278.219 108.774 278.414C108.499 278.604 108.288 278.88 108.14 279.239C107.996 279.599 107.924 280.035 107.924 280.547V280.56C107.924 281.067 107.996 281.501 108.14 281.861C108.288 282.221 108.499 282.498 108.774 282.692C109.049 282.883 109.384 282.978 109.777 282.978ZM82.965 297V287.84H86.2721C87.182 287.84 87.9585 288.02 88.6017 288.38C89.245 288.74 89.7359 289.258 90.0744 289.935C90.4172 290.612 90.5886 291.431 90.5886 292.392V292.404C90.5886 293.373 90.4172 294.201 90.0744 294.886C89.7359 295.572 89.245 296.097 88.6017 296.46C87.9627 296.82 87.1862 297 86.2721 297H82.965ZM84.3869 295.769H86.1135C86.7525 295.769 87.2962 295.637 87.7448 295.375C88.1976 295.113 88.5404 294.732 88.7731 294.232C89.0101 293.733 89.1286 293.13 89.1286 292.423V292.411C89.1286 291.708 89.008 291.107 88.7668 290.608C88.5298 290.109 88.187 289.728 87.7385 289.465C87.2899 289.203 86.7482 289.072 86.1135 289.072H84.3869V295.769ZM91.9822 297V290.106H93.366V297H91.9822ZM92.6805 288.875C92.4435 288.875 92.2404 288.79 92.0711 288.621C91.9018 288.452 91.8172 288.249 91.8172 288.012C91.8172 287.775 91.9018 287.574 92.0711 287.409C92.2404 287.239 92.4435 287.155 92.6805 287.155C92.9175 287.155 93.1206 287.239 93.2899 287.409C93.4591 287.574 93.5438 287.775 93.5438 288.012C93.5438 288.249 93.4591 288.452 93.2899 288.621C93.1206 288.79 92.9175 288.875 92.6805 288.875ZM96.8671 297.114C96.4313 297.114 96.0398 297.032 95.6928 296.867C95.3501 296.697 95.0792 296.458 94.8803 296.149C94.6814 295.84 94.582 295.479 94.582 295.064V295.051C94.582 294.637 94.6814 294.283 94.8803 293.991C95.0835 293.699 95.3755 293.471 95.7563 293.306C96.1414 293.136 96.6069 293.035 97.1528 293.001L99.6982 292.849V293.82L97.3432 293.972C96.8693 294.002 96.5201 294.103 96.2959 294.277C96.0716 294.446 95.9594 294.685 95.9594 294.994V295.007C95.9594 295.32 96.08 295.568 96.3213 295.75C96.5625 295.927 96.8671 296.016 97.2353 296.016C97.5781 296.016 97.8828 295.948 98.1494 295.813C98.4202 295.673 98.6318 295.487 98.7841 295.254C98.9365 295.017 99.0127 294.751 99.0127 294.455V292.284C99.0127 291.903 98.8942 291.613 98.6572 291.414C98.4244 291.211 98.0774 291.109 97.6162 291.109C97.2311 291.109 96.9158 291.177 96.6704 291.312C96.4292 291.448 96.2684 291.638 96.188 291.884L96.1753 291.903H94.8486L94.8549 291.858C94.91 291.478 95.0602 291.147 95.3056 290.868C95.5553 290.585 95.8811 290.365 96.2832 290.208C96.6894 290.051 97.1528 289.973 97.6733 289.973C98.2531 289.973 98.7439 290.066 99.146 290.252C99.5522 290.434 99.859 290.699 100.066 291.046C100.278 291.389 100.384 291.801 100.384 292.284V297H99.0127V296.022H98.9111C98.7757 296.255 98.6064 296.454 98.4033 296.619C98.2002 296.78 97.9695 296.903 97.7114 296.987C97.4532 297.072 97.1718 297.114 96.8671 297.114Z" fill="white"/>
<path d="M67.0408 372.222C66.1944 372.222 65.4602 372.028 64.8381 371.638C64.2203 371.249 63.7442 370.697 63.4099 369.981C63.0756 369.266 62.9085 368.416 62.9085 367.43V367.417C62.9085 366.427 63.0756 365.574 63.4099 364.859C63.7442 364.144 64.2203 363.591 64.8381 363.202C65.456 362.813 66.1902 362.618 67.0408 362.618C67.7136 362.618 68.3209 362.751 68.8626 363.018C69.4085 363.28 69.8549 363.644 70.2019 364.11C70.5532 364.575 70.7669 365.111 70.843 365.716V365.754H69.4275L69.4212 365.729C69.3365 365.352 69.1821 365.026 68.9578 364.751C68.7335 364.476 68.4584 364.262 68.1326 364.11C67.8067 363.958 67.4428 363.881 67.0408 363.881C66.4949 363.881 66.0209 364.025 65.6189 364.313C65.2211 364.601 64.9122 365.009 64.6921 365.538C64.4763 366.063 64.3684 366.689 64.3684 367.417V367.43C64.3684 368.149 64.4763 368.773 64.6921 369.302C64.9122 369.831 65.2211 370.24 65.6189 370.527C66.0209 370.815 66.497 370.959 67.0471 370.959C67.4491 370.959 67.8131 370.891 68.1389 370.756C68.469 370.62 68.7441 370.428 68.9641 370.178C69.1842 369.924 69.3344 369.626 69.4148 369.283L69.4275 369.258H70.8494L70.843 369.29C70.7542 369.878 70.5383 370.392 70.1956 370.832C69.8528 371.272 69.4127 371.615 68.8753 371.86C68.3378 372.102 67.7263 372.222 67.0408 372.222ZM74.0585 372.114C73.6226 372.114 73.2312 372.032 72.8842 371.867C72.5414 371.697 72.2706 371.458 72.0717 371.149C71.8728 370.84 71.7733 370.479 71.7733 370.064V370.051C71.7733 369.637 71.8728 369.283 72.0717 368.991C72.2748 368.699 72.5668 368.471 72.9477 368.306C73.3327 368.136 73.7982 368.035 74.3441 368.001L76.8896 367.849V368.82L74.5346 368.972C74.0606 369.002 73.7115 369.103 73.4872 369.277C73.2629 369.446 73.1508 369.685 73.1508 369.994V370.007C73.1508 370.32 73.2714 370.568 73.5126 370.75C73.7538 370.927 74.0585 371.016 74.4267 371.016C74.7694 371.016 75.0741 370.948 75.3407 370.813C75.6116 370.673 75.8231 370.487 75.9755 370.254C76.1278 370.017 76.204 369.751 76.204 369.455V367.284C76.204 366.903 76.0855 366.613 75.8485 366.414C75.6158 366.211 75.2688 366.109 74.8075 366.109C74.4224 366.109 74.1072 366.177 73.8617 366.312C73.6205 366.448 73.4597 366.638 73.3793 366.884L73.3666 366.903H72.0399L72.0463 366.858C72.1013 366.478 72.2515 366.147 72.497 365.868C72.7466 365.585 73.0725 365.365 73.4745 365.208C73.8808 365.051 74.3441 364.973 74.8646 364.973C75.4444 364.973 75.9353 365.066 76.3373 365.252C76.7436 365.434 77.0504 365.699 77.2577 366.046C77.4693 366.389 77.5751 366.801 77.5751 367.284V372H76.204V371.022H76.1024C75.967 371.255 75.7978 371.454 75.5946 371.619C75.3915 371.78 75.1609 371.903 74.9027 371.987C74.6446 372.072 74.3632 372.114 74.0585 372.114ZM81.4253 372.133C80.9091 372.133 80.4732 372.034 80.1177 371.835C79.7665 371.632 79.502 371.34 79.3243 370.959C79.1508 370.574 79.064 370.111 79.064 369.569V365.106H80.4414V369.245C80.4414 369.812 80.5536 370.237 80.7779 370.521C81.0022 370.805 81.3682 370.946 81.876 370.946C82.1468 370.946 82.3881 370.906 82.5996 370.826C82.8112 370.741 82.989 370.62 83.1329 370.464C83.2767 370.307 83.3825 370.119 83.4502 369.899C83.5222 369.679 83.5581 369.429 83.5581 369.15V365.106H84.9419V372H83.5581V370.959H83.4566C83.3466 371.204 83.1963 371.416 83.0059 371.594C82.8155 371.767 82.587 371.901 82.3204 371.994C82.058 372.087 81.7596 372.133 81.4253 372.133ZM89.0397 372.133C88.4854 372.133 88.0029 372.053 87.5925 371.892C87.182 371.727 86.8561 371.501 86.6149 371.213C86.3737 370.921 86.2319 370.582 86.1896 370.197V370.185H87.5734V370.197C87.6623 370.455 87.8316 370.665 88.0812 370.826C88.3309 370.986 88.661 371.067 89.0715 371.067C89.355 371.067 89.6026 371.027 89.8141 370.946C90.03 370.866 90.1992 370.754 90.322 370.61C90.4447 370.466 90.506 370.301 90.506 370.115V370.102C90.506 369.886 90.4193 369.704 90.2458 369.556C90.0723 369.408 89.7866 369.287 89.3888 369.194L88.2844 368.94C87.8527 368.843 87.4951 368.71 87.2116 368.541C86.9281 368.371 86.7186 368.164 86.5832 367.918C86.4478 367.669 86.3801 367.377 86.3801 367.042V367.036C86.3801 366.634 86.4943 366.279 86.7228 365.97C86.9513 365.657 87.2666 365.413 87.6686 365.24C88.0749 365.062 88.5383 364.973 89.0588 364.973C89.5835 364.973 90.0405 365.056 90.4299 365.221C90.8234 365.382 91.1345 365.606 91.363 365.894C91.5915 366.177 91.7269 366.507 91.7692 366.884V366.89H90.4489V366.877C90.3854 366.636 90.2331 366.435 89.9919 366.274C89.7549 366.114 89.4417 366.033 89.0524 366.033C88.8027 366.033 88.5806 366.073 88.3859 366.154C88.1913 366.23 88.0368 366.338 87.9225 366.478C87.8125 366.613 87.7575 366.774 87.7575 366.96V366.973C87.7575 367.117 87.7935 367.243 87.8654 367.354C87.9416 367.459 88.0601 367.555 88.2209 367.639C88.3817 367.72 88.589 367.792 88.8429 367.855L89.9411 368.103C90.6012 368.259 91.0921 368.486 91.4137 368.782C91.7396 369.078 91.9025 369.476 91.9025 369.975V369.988C91.9025 370.411 91.7777 370.785 91.528 371.111C91.2783 371.433 90.9377 371.685 90.506 371.867C90.0786 372.044 89.5899 372.133 89.0397 372.133ZM95.0418 372.114C94.6059 372.114 94.2145 372.032 93.8675 371.867C93.5247 371.697 93.2539 371.458 93.055 371.149C92.8561 370.84 92.7567 370.479 92.7567 370.064V370.051C92.7567 369.637 92.8561 369.283 93.055 368.991C93.2581 368.699 93.5501 368.471 93.931 368.306C94.3161 368.136 94.7816 368.035 95.3275 368.001L97.8729 367.849V368.82L95.5179 368.972C95.0439 369.002 94.6948 369.103 94.4705 369.277C94.2462 369.446 94.1341 369.685 94.1341 369.994V370.007C94.1341 370.32 94.2547 370.568 94.4959 370.75C94.7371 370.927 95.0418 371.016 95.41 371.016C95.7528 371.016 96.0574 370.948 96.324 370.813C96.5949 370.673 96.8065 370.487 96.9588 370.254C97.1112 370.017 97.1873 369.751 97.1873 369.455V367.284C97.1873 366.903 97.0688 366.613 96.8319 366.414C96.5991 366.211 96.2521 366.109 95.7908 366.109C95.4057 366.109 95.0905 366.177 94.845 366.312C94.6038 366.448 94.443 366.638 94.3626 366.884L94.3499 366.903H93.0233L93.0296 366.858C93.0846 366.478 93.2349 366.147 93.4803 365.868C93.73 365.585 94.0558 365.365 94.4578 365.208C94.8641 365.051 95.3275 364.973 95.848 364.973C96.4277 364.973 96.9186 365.066 97.3206 365.252C97.7269 365.434 98.0337 365.699 98.241 366.046C98.4526 366.389 98.5584 366.801 98.5584 367.284V372H97.1873V371.022H97.0858C96.9503 371.255 96.7811 371.454 96.5779 371.619C96.3748 371.78 96.1442 371.903 95.8861 371.987C95.6279 372.072 95.3465 372.114 95.0418 372.114ZM105.776 372.114C105.201 372.114 104.697 371.97 104.266 371.683C103.838 371.391 103.506 370.978 103.269 370.445C103.036 369.912 102.92 369.283 102.92 368.56V368.547C102.92 367.819 103.036 367.188 103.269 366.655C103.502 366.122 103.832 365.712 104.259 365.424C104.687 365.132 105.192 364.986 105.776 364.986C106.094 364.986 106.39 365.037 106.665 365.138C106.94 365.236 107.184 365.375 107.395 365.557C107.607 365.735 107.774 365.949 107.897 366.198H107.998V362.402H109.382V372H107.998V370.915H107.897C107.761 371.164 107.59 371.38 107.382 371.562C107.175 371.74 106.936 371.877 106.665 371.975C106.394 372.068 106.098 372.114 105.776 372.114ZM106.17 370.934C106.551 370.934 106.881 370.838 107.16 370.648C107.44 370.458 107.653 370.185 107.801 369.829C107.949 369.469 108.024 369.046 108.024 368.56V368.547C108.024 368.056 107.947 367.633 107.795 367.277C107.647 366.922 107.433 366.649 107.154 366.458C106.879 366.264 106.551 366.167 106.17 366.167C105.789 366.167 105.459 366.264 105.18 366.458C104.905 366.649 104.693 366.922 104.545 367.277C104.401 367.629 104.329 368.052 104.329 368.547V368.56C104.329 369.05 104.401 369.474 104.545 369.829C104.693 370.185 104.905 370.458 105.18 370.648C105.459 370.838 105.789 370.934 106.17 370.934ZM113.956 372.133C113.283 372.133 112.701 371.989 112.21 371.702C111.724 371.414 111.349 371.003 111.087 370.47C110.824 369.933 110.693 369.296 110.693 368.56V368.547C110.693 367.806 110.824 367.169 111.087 366.636C111.353 366.103 111.73 365.693 112.217 365.405C112.707 365.117 113.287 364.973 113.956 364.973C114.629 364.973 115.208 365.117 115.695 365.405C116.182 365.688 116.556 366.099 116.819 366.636C117.085 367.169 117.218 367.806 117.218 368.547V368.56C117.218 369.296 117.085 369.933 116.819 370.47C116.556 371.003 116.182 371.414 115.695 371.702C115.213 371.989 114.633 372.133 113.956 372.133ZM113.956 370.978C114.349 370.978 114.684 370.883 114.959 370.692C115.234 370.498 115.443 370.221 115.587 369.861C115.731 369.501 115.803 369.067 115.803 368.56V368.547C115.803 368.035 115.731 367.599 115.587 367.239C115.443 366.88 115.234 366.604 114.959 366.414C114.684 366.219 114.349 366.122 113.956 366.122C113.562 366.122 113.228 366.219 112.953 366.414C112.678 366.604 112.466 366.88 112.318 367.239C112.174 367.599 112.102 368.035 112.102 368.547V368.56C112.102 369.067 112.174 369.501 112.318 369.861C112.466 370.221 112.678 370.498 112.953 370.692C113.228 370.883 113.562 370.978 113.956 370.978ZM65.6588 385L68.9659 375.84H70.1148V377.446H69.6832L67.1568 385H65.6588ZM67.252 382.524L67.6519 381.382H71.8223L72.2222 382.524H67.252ZM72.3111 385L69.7911 377.446V375.84H70.5084L73.8092 385H72.3111ZM77.3737 385.133C76.7051 385.133 76.1275 384.989 75.6408 384.702C75.1584 384.41 74.786 383.995 74.5237 383.458C74.2613 382.92 74.1301 382.279 74.1301 381.534V381.521C74.1301 380.789 74.2592 380.159 74.5173 379.63C74.7797 379.101 75.1521 378.693 75.6345 378.405C76.1211 378.117 76.6988 377.973 77.3674 377.973C77.9472 377.973 78.4444 378.075 78.8591 378.278C79.278 378.477 79.6102 378.752 79.8557 379.103C80.1054 379.45 80.2619 379.846 80.3254 380.29L80.3318 380.322H79.0051L78.9987 380.309C78.9226 379.971 78.747 379.689 78.4719 379.465C78.1968 379.236 77.8308 379.122 77.3737 379.122C76.9929 379.122 76.6649 379.219 76.3899 379.414C76.1148 379.604 75.9032 379.88 75.7551 380.239C75.6112 380.599 75.5393 381.026 75.5393 381.521V381.534C75.5393 382.042 75.6133 382.478 75.7614 382.842C75.9096 383.206 76.1211 383.487 76.3962 383.686C76.6713 383.881 76.9971 383.978 77.3737 383.978C77.8054 383.978 78.1545 383.883 78.4211 383.692C78.6919 383.502 78.8824 383.221 78.9924 382.848L79.0051 382.816L80.3254 382.81L80.3127 382.867C80.2323 383.316 80.0694 383.709 79.8239 384.048C79.5785 384.386 79.2505 384.653 78.8401 384.848C78.4338 385.038 77.945 385.133 77.3737 385.133ZM81.516 385V378.106H82.8998V385H81.516ZM82.2142 376.875C81.9772 376.875 81.7741 376.79 81.6048 376.621C81.4356 376.452 81.3509 376.249 81.3509 376.012C81.3509 375.775 81.4356 375.574 81.6048 375.409C81.7741 375.239 81.9772 375.155 82.2142 375.155C82.4512 375.155 82.6543 375.239 82.8236 375.409C82.9929 375.574 83.0775 375.775 83.0775 376.012C83.0775 376.249 82.9929 376.452 82.8236 376.621C82.6543 376.79 82.4512 376.875 82.2142 376.875ZM87.0229 385.114C86.4474 385.114 85.9438 384.97 85.5122 384.683C85.0848 384.391 84.7526 383.978 84.5156 383.445C84.2829 382.912 84.1665 382.283 84.1665 381.56V381.547C84.1665 380.819 84.2829 380.188 84.5156 379.655C84.7484 379.122 85.0785 378.712 85.5059 378.424C85.9333 378.132 86.439 377.986 87.0229 377.986C87.3403 377.986 87.6366 378.037 87.9116 378.138C88.1867 378.236 88.43 378.375 88.6416 378.557C88.8532 378.735 89.0203 378.949 89.1431 379.198H89.2446V375.402H90.6284V385H89.2446V383.915H89.1431C89.0076 384.164 88.8363 384.38 88.6289 384.562C88.4215 384.74 88.1825 384.877 87.9116 384.975C87.6408 385.068 87.3446 385.114 87.0229 385.114ZM87.4165 383.934C87.7974 383.934 88.1274 383.838 88.4067 383.648C88.686 383.458 88.8997 383.185 89.0479 382.829C89.196 382.469 89.27 382.046 89.27 381.56V381.547C89.27 381.056 89.1938 380.633 89.0415 380.277C88.8934 379.922 88.6797 379.649 88.4004 379.458C88.1253 379.264 87.7974 379.167 87.4165 379.167C87.0356 379.167 86.7056 379.264 86.4263 379.458C86.1512 379.649 85.9396 379.922 85.7915 380.277C85.6476 380.629 85.5757 381.052 85.5757 381.547V381.56C85.5757 382.05 85.6476 382.474 85.7915 382.829C85.9396 383.185 86.1512 383.458 86.4263 383.648C86.7056 383.838 87.0356 383.934 87.4165 383.934ZM95.1769 385.133C94.504 385.133 93.9264 384.989 93.444 384.702C92.9616 384.41 92.5892 383.997 92.3268 383.464C92.0687 382.931 91.9396 382.3 91.9396 381.572V381.566C91.9396 380.847 92.0687 380.218 92.3268 379.681C92.5892 379.143 92.9573 378.724 93.4313 378.424C93.9095 378.123 94.4681 377.973 95.1071 377.973C95.7503 377.973 96.3025 378.117 96.7638 378.405C97.2293 378.693 97.5869 379.097 97.8366 379.617C98.0862 380.133 98.2111 380.739 98.2111 381.433V381.915H92.6378V380.931H97.5255L96.8654 381.845V381.293C96.8654 380.802 96.7892 380.396 96.6369 380.074C96.4887 379.748 96.2835 379.505 96.0211 379.344C95.7588 379.183 95.4562 379.103 95.1134 379.103C94.7706 379.103 94.4638 379.188 94.193 379.357C93.9264 379.522 93.7148 379.767 93.5582 380.093C93.4059 380.419 93.3297 380.819 93.3297 381.293V381.845C93.3297 382.298 93.4059 382.685 93.5582 383.007C93.7106 383.328 93.9264 383.574 94.2057 383.743C94.4892 383.912 94.8235 383.997 95.2086 383.997C95.5049 383.997 95.7588 383.957 95.9704 383.876C96.1862 383.792 96.3618 383.688 96.4972 383.565C96.6369 383.443 96.7321 383.322 96.7829 383.204L96.8082 383.153H98.1412L98.1286 383.21C98.0693 383.438 97.9656 383.667 97.8175 383.896C97.6694 384.12 97.4726 384.325 97.2272 384.511C96.986 384.697 96.694 384.848 96.3512 384.962C96.0127 385.076 95.6212 385.133 95.1769 385.133ZM99.4588 385V378.106H100.836V379.147H100.944C101.113 378.779 101.363 378.492 101.693 378.284C102.023 378.077 102.44 377.973 102.944 377.973C103.718 377.973 104.31 378.195 104.721 378.64C105.131 379.084 105.337 379.717 105.337 380.538V385H103.953V380.861C103.953 380.286 103.832 379.858 103.591 379.579C103.354 379.296 102.982 379.154 102.474 379.154C102.14 379.154 101.85 379.228 101.604 379.376C101.359 379.52 101.168 379.727 101.033 379.998C100.902 380.265 100.836 380.584 100.836 380.957V385H99.4588ZM109.466 385.044C108.713 385.044 108.167 384.901 107.829 384.613C107.494 384.321 107.327 383.845 107.327 383.185V379.192H106.248V378.106H107.327V376.367H108.736V378.106H110.215V379.192H108.736V382.848C108.736 383.221 108.81 383.489 108.958 383.654C109.107 383.815 109.352 383.896 109.695 383.896C109.796 383.896 109.883 383.893 109.955 383.889C110.031 383.885 110.118 383.879 110.215 383.87V384.975C110.105 384.992 109.987 385.006 109.86 385.019C109.733 385.036 109.602 385.044 109.466 385.044ZM114.256 385.133C113.583 385.133 113.005 384.989 112.523 384.702C112.041 384.41 111.668 383.997 111.406 383.464C111.148 382.931 111.019 382.3 111.019 381.572V381.566C111.019 380.847 111.148 380.218 111.406 379.681C111.668 379.143 112.036 378.724 112.51 378.424C112.989 378.123 113.547 377.973 114.186 377.973C114.829 377.973 115.382 378.117 115.843 378.405C116.308 378.693 116.666 379.097 116.916 379.617C117.165 380.133 117.29 380.739 117.29 381.433V381.915H111.717V380.931H116.605L115.944 381.845V381.293C115.944 380.802 115.868 380.396 115.716 380.074C115.568 379.748 115.363 379.505 115.1 379.344C114.838 379.183 114.535 379.103 114.192 379.103C113.85 379.103 113.543 379.188 113.272 379.357C113.005 379.522 112.794 379.767 112.637 380.093C112.485 380.419 112.409 380.819 112.409 381.293V381.845C112.409 382.298 112.485 382.685 112.637 383.007C112.79 383.328 113.005 383.574 113.285 383.743C113.568 383.912 113.903 383.997 114.288 383.997C114.584 383.997 114.838 383.957 115.049 383.876C115.265 383.792 115.441 383.688 115.576 383.565C115.716 383.443 115.811 383.322 115.862 383.204L115.887 383.153H117.22L117.208 383.21C117.148 383.438 117.045 383.667 116.897 383.896C116.748 384.12 116.552 384.325 116.306 384.511C116.065 384.697 115.773 384.848 115.43 384.962C115.092 385.076 114.7 385.133 114.256 385.133Z" fill="white"/>
</g>
<defs>
<filter id="filter0_d_42_43" x="275.7" y="28.5" width="151.6" height="428.4" filterUnits="userSpaceOnUse" color-interpolation-filters="sRGB">
<feFlood flood-opacity="0" result="BackgroundImageFix"/>
<feColorMatrix in="SourceAlpha" type="matrix" values="0 0 0 0 0 0 0 0 0 0 0 0 0 0 0 0 0 0 127 0" result="hardAlpha"/>
<feOffset/>
<feGaussianBlur stdDeviation="28.5"/>
<feComposite in2="hardAlpha" operator="out"/>
<feColorMatrix type="matrix" values="0 0 0 0 1 0 0 0 0 1 0 0 0 0 1 0 0 0 0.5 0"/>
<feBlend mode="normal" in2="BackgroundImageFix" result="effect1_dropShadow_42_43"/>
<feBlend mode="normal" in="SourceGraphic" in2="effect1_dropShadow_42_43" result="shape"/>
</filter>
<filter id="filter1_d_42_43" x="119.5" y="36.5" width="463.5" height="411.6" filterUnits="userSpaceOnUse" color-interpolation-filters="sRGB">
<feFlood flood-opacity="0" result="BackgroundImageFix"/>
<feColorMatrix in="SourceAlpha" type="matrix" values="0 0 0 0 0 0 0 0 0 0 0 0 0 0 0 0 0 0 127 0" result="hardAlpha"/>
<feOffset/>
<feGaussianBlur stdDeviation="28.5"/>
<feComposite in2="hardAlpha" operator="out"/>
<feColorMatrix type="matrix" values="0 0 0 0 1 0 0 0 0 1 0 0 0 0 1 0 0 0 0.5 0"/>
<feBlend mode="normal" in2="BackgroundImageFix" result="effect1_dropShadow_42_43"/>
<feBlend mode="normal" in="SourceGraphic" in2="effect1_dropShadow_42_43" result="shape"/>
</filter>
<filter id="filter2_d_42_43" x="79" y="46.5137" width="546.25" height="392.373" filterUnits="userSpaceOnUse" color-interpolation-filters="sRGB">
<feFlood flood-opacity="0" result="BackgroundImageFix"/>
<feColorMatrix in="SourceAlpha" type="matrix" values="0 0 0 0 0 0 0 0 0 0 0 0 0 0 0 0 0 0 127 0" result="hardAlpha"/>
<feOffset/>
<feGaussianBlur stdDeviation="28.5"/>
<feComposite in2="hardAlpha" operator="out"/>
<feColorMatrix type="matrix" values="0 0 0 0 1 0 0 0 0 1 0 0 0 0 1 0 0 0 0.5 0"/>
<feBlend mode="normal" in2="BackgroundImageFix" result="effect1_dropShadow_42_43"/>
<feBlend mode="normal" in="SourceGraphic" in2="effect1_dropShadow_42_43" result="shape"/>
</filter>
<filter id="filter3_d_42_43" x="0.279224" y="0.540333" width="747.894" height="441.893" filterUnits="userSpaceOnUse" color-interpolation-filters="sRGB">
<feFlood flood-opacity="0" result="BackgroundImageFix"/>
<feColorMatrix in="SourceAlpha" type="matrix" values="0 0 0 0 0 0 0 0 0 0 0 0 0 0 0 0 0 0 127 0" result="hardAlpha"/>
<feOffset/>
<feGaussianBlur stdDeviation="28.65"/>
<feComposite in2="hardAlpha" operator="out"/>
<feColorMatrix type="matrix" values="0 0 0 0 1 0 0 0 0 1 0 0 0 0 1 0 0 0 0.49 0"/>
<feBlend mode="normal" in2="BackgroundImageFix" result="effect1_dropShadow_42_43"/>
<feBlend mode="normal" in="SourceGraphic" in2="effect1_dropShadow_42_43" result="shape"/>
</filter>
<filter id="filter4_d_42_43" x="568.448" y="220.366" width="131.225" height="52.6195" filterUnits="userSpaceOnUse" color-interpolation-filters="sRGB">
<feFlood flood-opacity="0" result="BackgroundImageFix"/>
<feColorMatrix in="SourceAlpha" type="matrix" values="0 0 0 0 0 0 0 0 0 0 0 0 0 0 0 0 0 0 127 0" result="hardAlpha"/>
<feOffset/>
<feGaussianBlur stdDeviation="4.4"/>
<feComposite in2="hardAlpha" operator="out"/>
<feColorMatrix type="matrix" values="0 0 0 0 0.990385 0 0 0 0 0.990385 0 0 0 0 0.185697 0 0 0 1 0"/>
<feBlend mode="normal" in2="BackgroundImageFix" result="effect1_dropShadow_42_43"/>
<feBlend mode="normal" in="SourceGraphic" in2="effect1_dropShadow_42_43" result="shape"/>
</filter>
</defs>
</svg>
