<svg width="41" height="41" viewBox="0 0 41 41" fill="none" xmlns="http://www.w3.org/2000/svg">
<path d="M36.6071 24.8929C39.0291 24.8929 41 22.9219 41 20.5C41 18.0781 39.0291 16.1071 36.6071 16.1071C35.7016 16.1098 34.819 16.3928 34.0807 16.9172C33.3424 17.4415 32.7846 18.1816 32.4837 19.0357H24.0348L34.7241 8.34643C35.2981 8.62025 35.9306 8.78571 36.6071 8.78571C39.0291 8.78571 41 6.81479 41 4.39286C41 1.97093 39.0291 0 36.6071 0C34.1852 0 32.2143 1.97093 32.2143 4.39286C32.2143 5.06936 32.3812 5.70193 32.6536 6.27446L20.5 18.4295V8.78571C20.5 7.17207 21.8135 5.85714 23.4286 5.85714H26.3571V2.92857H23.4286C21.6714 2.92857 20.1105 3.72368 19.0357 4.95221C18.491 4.32009 17.817 3.8123 17.0591 3.46317C16.3013 3.11405 15.4773 2.93174 14.6429 2.92857H13.1786C5.91279 2.92857 0 8.83989 0 16.1071V24.8929C0 32.1601 5.91279 38.0714 13.1786 38.0714H14.6429C16.4 38.0714 17.9609 37.2778 19.0357 36.0478C20.1105 37.2778 21.6714 38.0714 23.4286 38.0714H26.3571V35.1429H23.4286C21.8135 35.1429 20.5 33.8294 20.5 32.2143V22.5705L32.6536 34.7255C32.3797 35.2981 32.2143 35.9306 32.2143 36.6071C32.2143 39.0305 34.1852 41 36.6071 41C39.0291 41 41 39.0305 41 36.6071C41 34.1838 39.0291 32.2143 36.6071 32.2143C35.9548 32.2177 35.3116 32.3684 34.7255 32.655L24.0348 21.9657H32.4837C32.7848 22.8196 33.3428 23.5594 34.0811 24.0834C34.8194 24.6075 35.7018 24.8903 36.6071 24.8929ZM36.6071 19.0357C36.9955 19.0357 37.3679 19.19 37.6426 19.4646C37.9172 19.7392 38.0714 20.1116 38.0714 20.5C38.0714 20.8884 37.9172 21.2608 37.6426 21.5354C37.3679 21.81 36.9955 21.9643 36.6071 21.9643C36.2188 21.9643 35.8463 21.81 35.5717 21.5354C35.2971 21.2608 35.1429 20.8884 35.1429 20.5C35.1429 20.1116 35.2971 19.7392 35.5717 19.4646C35.8463 19.19 36.2188 19.0357 36.6071 19.0357ZM36.6071 2.92857C36.9842 2.94544 37.3402 3.10708 37.601 3.37984C37.8618 3.6526 38.0074 4.01546 38.0074 4.39286C38.0074 4.77026 37.8618 5.13312 37.601 5.40588C37.3402 5.67864 36.9842 5.84028 36.6071 5.85714C36.2188 5.85714 35.8463 5.70287 35.5717 5.42826C35.2971 5.15366 35.1429 4.78121 35.1429 4.39286C35.1429 4.0045 35.2971 3.63206 35.5717 3.35745C35.8463 3.08284 36.2188 2.92857 36.6071 2.92857ZM17.5714 14.6429H14.6429V17.5714H17.5714V23.4286H14.6429C12.2209 23.4286 10.25 25.3995 10.25 27.8214V30.75H13.1786V27.8214C13.1786 27.4331 13.3328 27.0606 13.6075 26.786C13.8821 26.5114 14.2545 26.3571 14.6429 26.3571H17.5714V32.2143C17.5714 33.8294 16.258 35.1429 14.6429 35.1429H13.1786C8.02429 35.1429 3.76029 31.3167 3.04571 26.3571H5.85714V23.4286H2.92857V17.5714H7.32143C9.74336 17.5714 11.7143 15.6005 11.7143 13.1786V10.25H8.78571V13.1786C8.78571 13.5669 8.63144 13.9394 8.35683 14.214C8.08223 14.4886 7.70978 14.6429 7.32143 14.6429H3.04571C3.76029 9.68332 8.02429 5.85714 13.1786 5.85714H14.6429C16.258 5.85714 17.5714 7.17207 17.5714 8.78571V14.6429ZM38.0714 36.6071C38.0546 36.9842 37.8929 37.3402 37.6202 37.601C37.3474 37.8618 36.9845 38.0074 36.6071 38.0074C36.2297 38.0074 35.8669 37.8618 35.5941 37.601C35.3214 37.3402 35.1597 36.9842 35.1429 36.6071C35.1429 35.8003 35.8003 35.1429 36.6071 35.1429C37.414 35.1429 38.0714 35.8003 38.0714 36.6071Z" fill="url(#paint0_linear_42_84)"/>
<defs>
<linearGradient id="paint0_linear_42_84" x1="25.9788" y1="-20.317" x2="-22.0956" y2="-5.39982" gradientUnits="userSpaceOnUse">
<stop stop-color="#C8FBFF"/>
<stop offset="1" stop-color="#80993A"/>
</linearGradient>
</defs>
</svg>
